<?xml version="1.0" encoding="UTF-8"?>
<svg version="1.1" xmlns="http://www.w3.org/2000/svg" width="266" height="220">
<path d="M0 0 C1.7005957 -0.03673828 1.7005957 -0.03673828 3.43554688 -0.07421875 C18.90401355 -0.12771201 29.05650368 7.24523803 40.24609375 17.2265625 C42.16814772 19.22491729 43.26050321 20.83411158 44.3125 23.375 C44.9725 23.375 45.6325 23.375 46.3125 23.375 C47.8989948 25.42409308 49.33349403 27.46100757 50.75 29.625 C51.40609253 30.61536255 51.40609253 30.61536255 52.07543945 31.62573242 C56.20628096 37.98340715 59.80756838 44.60342298 63.39160156 51.27978516 C66.33072979 56.71748933 69.42416554 61.76787128 73.16796875 66.6953125 C74.3125 68.375 74.3125 68.375 74.3125 70.375 C74.9725 70.375 75.6325 70.375 76.3125 70.375 C77.79296875 71.94921875 77.79296875 71.94921875 79.5 74.0625 C84.62524901 80.07031263 90.13673546 84.67913921 98.25390625 85.59375 C103.05692738 85.81248341 106.09299728 84.82819926 110.3125 82.375 C111.3025 82.045 112.2925 81.715 113.3125 81.375 C113.50877391 79.79273035 113.69415538 78.20910729 113.875 76.625 C113.97941406 75.74328125 114.08382812 74.8615625 114.19140625 73.953125 C114.30876522 71.45451476 114.19077774 69.70841245 113.3125 67.375 C110.2192839 65.46448417 108.33730063 65.37371721 104.6875 65.5625 C101.42096273 66.16036068 101.42096273 66.16036068 99.3125 67.625 C98.04997388 69.4328417 98.04997388 69.4328417 98.625 72.0625 C98.851875 72.825625 99.07875 73.58875 99.3125 74.375 C100.3025 74.705 101.2925 75.035 102.3125 75.375 C102.27125 74.42625 102.23 73.4775 102.1875 72.5 C102.3125 69.375 102.3125 69.375 104.3125 67.375 C107.375 67.625 107.375 67.625 110.3125 68.375 C111.84096661 71.43193322 111.54492445 74.00484547 111.3125 77.375 C110.25 79.75 110.25 79.75 108.3125 81.375 C104.75885093 82.29631643 102.20918339 82.58353102 98.625 81.75 C95.59053755 79.94572503 94.10886994 78.43548212 92.3125 75.375 C91.70580543 70.59728026 91.82444704 68.40967227 93.875 64.0625 C96.87129952 60.75888771 99.02204282 59.59062953 103.3125 58.375 C108.25729918 58.23398862 112.37137913 59.33470676 116.3125 62.375 C120.13642744 66.32981982 119.94380132 70.3593413 119.93359375 75.64941406 C119.70960672 81.12909681 118.35365041 84.21660734 114.390625 87.921875 C110.31486494 90.77184256 106.36232461 92.375 101.3125 92.375 C101.395 93.426875 101.4775 94.47875 101.5625 95.5625 C101.26507789 100.09818719 100.61750807 101.31786754 97.3125 104.375 C92.07157172 107.88866975 86.63191768 109.52629361 80.3125 109.375 C76.75 108.4375 76.75 108.4375 74.3125 107.375 C74.04566406 107.97828125 73.77882813 108.5815625 73.50390625 109.203125 C71.34134312 113.14537123 68.52983845 114.91291167 64.3125 116.375 C57.91518081 117.1832972 49.75147105 118.0009807 44.3125 114.375 C41.52394878 114.77071756 41.52394878 114.77071756 39.3125 116.375 C36.42075409 116.58368269 33.58264331 116.69984791 30.6875 116.75 C29.49447266 116.80607422 29.49447266 116.80607422 28.27734375 116.86328125 C22.80227567 116.94419359 20.10314894 115.92689174 15.88525391 112.48388672 C13.51753413 110.81450093 11.633497 110.97619735 8.8125 111.25 C2.34884793 111.55104681 -1.08496511 110.11002326 -6.5 106.5 C-8.84223705 104.22468401 -9.74139558 102.47134174 -10.6875 99.375 C-11.244375 99.37242187 -11.80125 99.36984375 -12.375 99.3671875 C-18.95663981 99.03365846 -23.05114836 97.06368066 -27.6875 92.375 C-30.46172434 88.74897157 -31.6875 86.0511326 -31.6875 81.375 C-32.43 81.271875 -33.1725 81.16875 -33.9375 81.0625 C-36.8848519 80.32566203 -38.47133074 79.42700858 -40.6875 77.375 C-40.6875 76.715 -40.6875 76.055 -40.6875 75.375 C-41.3475 75.375 -42.0075 75.375 -42.6875 75.375 C-45.68551348 69.62880749 -46.27427182 64.82948997 -45.6875 58.375 C-45.3575 57.385 -45.0275 56.395 -44.6875 55.375 C-45.3475 55.375 -46.0075 55.375 -46.6875 55.375 C-50.24998488 51.02667286 -50.20510873 46.86185778 -50.1875 41.5 C-50.21585938 40.72269531 -50.24421875 39.94539063 -50.2734375 39.14453125 C-50.29125497 33.84383447 -49.26971235 30.95490538 -45.72705078 26.98217773 C-44.35008642 24.85334814 -44.61372437 23.77094721 -45.0625 21.3125 C-45.95693323 15.67757062 -43.95654898 13.1939702 -40.8125 8.6875 C-36.03505396 3.48851461 -31.47526073 2.70155894 -24.6875 2.375 C-22.83125 2.4059375 -22.83125 2.4059375 -20.9375 2.4375 C-17.76416836 2.57674679 -17.76416836 2.57674679 -15.34838867 1.39208984 C-10.43487869 -0.48603499 -5.20185549 0.00581538 0 0 Z M-19.6875 9.375 C-25.18008413 18.98702222 -25.87802737 30.61775597 -23.5625 41.25 C-20.54067295 52.27407275 -14.67821318 60.35747235 -6.6875 68.375 C-6.02234375 69.06335938 -5.3571875 69.75171875 -4.671875 70.4609375 C9.48449338 84.13101841 29.33795512 90.9273376 48.3125 94.375 C49.48582886 94.63301392 49.48582886 94.63301392 50.68286133 94.89624023 C63.07426755 97.15225617 77.35825736 96.22972699 89.3125 92.375 C89.3125 91.385 89.3125 90.395 89.3125 89.375 C86.99023822 87.39968463 86.99023822 87.39968463 84.0625 85.5 C80.05383283 82.7957404 77.21513815 80.2409591 74.3125 76.375 C73.52875 75.6325 72.745 74.89 71.9375 74.125 C67.86412279 69.85765245 64.18987165 65.00711495 62.3125 59.375 C61.6525 59.375 60.9925 59.375 60.3125 59.375 C60.10625 58.611875 59.9 57.84875 59.6875 57.0625 C56.83840261 49.42173882 52.44195433 42.47099103 48.25 35.5 C47.61964844 34.45070313 46.98929687 33.40140625 46.33984375 32.3203125 C44.24458385 29.27633184 41.98419761 26.91966904 39.3125 24.375 C38.54550781 23.56160156 37.77851563 22.74820313 36.98828125 21.91015625 C26.49336306 10.92952284 15.80216835 5.24246345 0.59765625 4.37109375 C-6.31006102 4.37930744 -13.97817207 5.23573725 -19.6875 9.375 Z M-30.6875 8.375 C-35.39564223 10.87933097 -38.2218129 13.64088077 -40.6875 18.375 C-40.57306744 20.68526274 -40.57306744 20.68526274 -39.6875 22.375 C-37.3139341 21.42800597 -37.3139341 21.42800597 -35.9375 18.125 C-33.80546751 14.20819789 -31.23532672 12.03587004 -27.6875 9.375 C-28.6775 9.045 -29.6675 8.715 -30.6875 8.375 Z M-31.6875 23.375 C-36.19852098 28.4993422 -36.19852098 28.4993422 -38.0625 34.875 C-37.93875 35.7 -37.815 36.525 -37.6875 37.375 C-34.75346315 35.98484131 -32.1203131 34.54035796 -29.6875 32.375 C-28.6714269 29.52683655 -28.6875 27.45355311 -28.6875 24.375 C-29.6775 24.045 -30.6675 23.715 -31.6875 23.375 Z M-43.6875 32.375 C-45.12055609 36.85330028 -46.13036767 40.61417255 -45.6875 45.375 C-45.0275 46.035 -44.3675 46.695 -43.6875 47.375 C-43.3575 42.425 -43.0275 37.475 -42.6875 32.375 C-43.0175 32.375 -43.3475 32.375 -43.6875 32.375 Z M-34.25 40.125 C-34.87003906 40.63546875 -35.49007812 41.1459375 -36.12890625 41.671875 C-37.94740463 43.65900606 -38.40321819 44.70863268 -38.6875 47.375 C-38.38262905 49.98257593 -38.38262905 49.98257593 -37.75 52.625 C-37.55535156 53.51703125 -37.36070313 54.4090625 -37.16015625 55.328125 C-37.00417969 56.00359375 -36.84820312 56.6790625 -36.6875 57.375 C-36.0275 57.375 -35.3675 57.375 -34.6875 57.375 C-33.31214661 55.40366014 -31.98538956 53.39818078 -30.6875 51.375 C-29.90375 50.611875 -29.12 49.84875 -28.3125 49.0625 C-26.37675543 45.86107628 -26.6533711 45.09660206 -27.4375 41.5625 C-27.83103243 40.15996871 -28.24046694 38.76140659 -28.6875 37.375 C-31.39254032 37.375 -32.20286992 38.39840177 -34.25 40.125 Z M-25.6875 51.375 C-26.8934918 52.75834353 -28.05242536 54.18289698 -29.1875 55.625 C-29.8165625 56.41390625 -30.445625 57.2028125 -31.09375 58.015625 C-32.64565813 60.31305762 -33.5101775 61.62381449 -33.6875 64.375 C-32.73084344 66.79746428 -32.73084344 66.79746428 -31.25 69.125 C-30.77691406 69.92421875 -30.30382812 70.7234375 -29.81640625 71.546875 C-29.44386719 72.15015625 -29.07132813 72.7534375 -28.6875 73.375 C-25.56193309 72.6835236 -25.56193309 72.6835236 -24.30078125 70.1953125 C-23.87152344 69.30585937 -23.44226563 68.41640625 -23 67.5 C-22.56300781 66.61570312 -22.12601563 65.73140625 -21.67578125 64.8203125 C-20.50014604 62.35100704 -20.50014604 62.35100704 -20.6875 59.375 C-21.54933284 57.28902819 -21.54933284 57.28902819 -22.6875 55.1875 C-23.05875 54.47207031 -23.43 53.75664063 -23.8125 53.01953125 C-24.10125 52.47683594 -24.39 51.93414062 -24.6875 51.375 C-25.0175 51.375 -25.3475 51.375 -25.6875 51.375 Z M-40.6875 62.375 C-40.15700781 68.20917295 -40.15700781 68.20917295 -37.6875 73.375 C-36.3675 73.705 -35.0475 74.035 -33.6875 74.375 C-35.6675 70.415 -37.6475 66.455 -39.6875 62.375 C-40.0175 62.375 -40.3475 62.375 -40.6875 62.375 Z M-17.6875 65.375 C-18.95539786 66.97197169 -18.95539786 66.97197169 -20.25 69 C-20.70503906 69.67289062 -21.16007812 70.34578125 -21.62890625 71.0390625 C-23.01412869 74.09575261 -23.16346946 76.0518678 -22.6875 79.375 C-20.80262265 81.80638277 -20.80262265 81.80638277 -18.25 83.75 C-17.42628906 84.43835938 -16.60257813 85.12671875 -15.75390625 85.8359375 C-13.98326335 87.47455473 -13.98326335 87.47455473 -12.6875 87.375 C-12.55472656 86.62734375 -12.42195313 85.8796875 -12.28515625 85.109375 C-12.10855469 84.12453125 -11.93195313 83.1396875 -11.75 82.125 C-11.57597656 81.15046875 -11.40195313 80.1759375 -11.22265625 79.171875 C-10.6875 76.375 -10.6875 76.375 -9.91015625 74.25 C-9.45563058 72.23608968 -9.45563058 72.23608968 -11.0859375 70.453125 C-11.73820312 69.84984375 -12.39046875 69.2465625 -13.0625 68.625 C-13.70960937 68.01140625 -14.35671875 67.3978125 -15.0234375 66.765625 C-16.45395133 65.26812553 -16.45395133 65.26812553 -17.6875 65.375 Z M-6.6875 76.375 C-8.5019295 80.3667449 -9.60883009 83.96948503 -9.6875 88.375 C-6.94090702 91.92941444 -3.75029431 94.45051849 0.3125 96.375 C1.3025 96.045 2.2925 95.715 3.3125 95.375 C3.27937272 93.29099266 3.20986131 91.20754234 3.125 89.125 C3.09019531 87.96484375 3.05539063 86.8046875 3.01953125 85.609375 C2.58098504 82.20673879 2.58098504 82.20673879 -0.11328125 79.953125 C-2.46844009 78.20078231 -2.46844009 78.20078231 -4.6875 78.375 C-4.6875 77.715 -4.6875 77.055 -4.6875 76.375 C-5.3475 76.375 -6.0075 76.375 -6.6875 76.375 Z M-25.6875 84.375 C-24.63875002 86.99687494 -24.03818687 88.16871361 -21.5625 89.625 C-20.94375 89.8725 -20.325 90.12 -19.6875 90.375 C-21.32919528 88.35445196 -22.99661778 86.35456942 -24.6875 84.375 C-25.0175 84.375 -25.3475 84.375 -25.6875 84.375 Z M6.3125 85.375 C6.16274761 92.43151252 6.16274761 92.43151252 7.3125 99.375 C8.74804025 99.88059908 10.1860202 100.3792749 11.625 100.875 C12.82576172 101.29265625 12.82576172 101.29265625 14.05078125 101.71875 C16.40019422 102.51433107 16.40019422 102.51433107 19.3125 102.375 C19.02767632 100.95694169 18.73431856 99.54059621 18.4375 98.125 C18.19386719 96.94164062 18.19386719 96.94164062 17.9453125 95.734375 C16.70534804 91.10319937 16.70534804 91.10319937 13.1484375 88.109375 C12.33632812 87.78453125 11.52421875 87.4596875 10.6875 87.125 C9.87023437 86.78984375 9.05296875 86.4546875 8.2109375 86.109375 C7.58445313 85.86703125 6.95796875 85.6246875 6.3125 85.375 Z M-19.6875 90.375 C-19.3575 91.035 -19.0275 91.695 -18.6875 92.375 C-18.0275 92.045 -17.3675 91.715 -16.6875 91.375 C-17.6775 91.045 -18.6675 90.715 -19.6875 90.375 Z M21.3125 92.375 C21.56912245 93.81510481 21.84340821 95.2520687 22.125 96.6875 C22.27582031 97.48800781 22.42664063 98.28851563 22.58203125 99.11328125 C23.42930332 101.73665306 24.03512134 102.81679355 26.3125 104.375 C29.05493563 104.73770484 29.05493563 104.73770484 32 104.5625 C33.49080078 104.52189453 33.49080078 104.52189453 35.01171875 104.48046875 C35.77097656 104.44566406 36.53023437 104.41085938 37.3125 104.375 C36.2071483 101.05894489 35.49800041 99.02593106 33.3125 96.375 C29.43854083 94.49983891 25.490623 93.37354512 21.3125 92.375 Z M95.3125 94.375 C87.3925 98.335 87.3925 98.335 79.3125 102.375 C79.3125 102.705 79.3125 103.035 79.3125 103.375 C84.78519471 103.71006294 88.47055789 102.9821996 93.3125 100.375 C95.23586969 98.34553147 95.23586969 98.34553147 96.3125 96.375 C95.9825 95.715 95.6525 95.055 95.3125 94.375 Z M39.3125 98.375 C40.40034968 101.62483135 40.40034968 101.62483135 42.3125 104.375 C43.95480364 104.4995486 45.60302276 104.55068524 47.25 104.5625 C48.14589844 104.57667969 49.04179687 104.59085937 49.96484375 104.60546875 C52.50364534 104.60694769 52.50364534 104.60694769 54.3125 102.375 C53.9825 101.715 53.6525 101.055 53.3125 100.375 C50.97505706 99.90693355 48.61510921 99.54830206 46.25 99.25 C44.95964844 99.08242187 43.66929687 98.91484375 42.33984375 98.7421875 C41.34082031 98.62101562 40.34179688 98.49984375 39.3125 98.375 Z M-3.6875 100.375 C0.12610102 104.47209868 0.12610102 104.47209868 5.4375 105.4375 C6.860625 105.4065625 6.860625 105.4065625 8.3125 105.375 C5.6264714 103.58431427 3.6498411 102.71444209 0.625 101.75 C-0.18324219 101.48960937 -0.99148437 101.22921875 -1.82421875 100.9609375 C-2.43910156 100.76757812 -3.05398437 100.57421875 -3.6875 100.375 Z M59.3125 101.375 C59.3125 101.705 59.3125 102.035 59.3125 102.375 C60.9625 102.375 62.6125 102.375 64.3125 102.375 C64.3125 102.045 64.3125 101.715 64.3125 101.375 C62.6625 101.375 61.0125 101.375 59.3125 101.375 Z M67.3125 106.375 C64.66447944 106.82280506 62.0195758 107.28264931 59.375 107.75 C58.24288086 107.93949219 58.24288086 107.93949219 57.08789062 108.1328125 C55.14966865 108.48047563 53.22870795 108.92143504 51.3125 109.375 C50.9825 110.035 50.6525 110.695 50.3125 111.375 C57.12848387 111.70778764 62.23372066 111.61701565 68.3125 108.375 C67.9825 107.715 67.6525 107.055 67.3125 106.375 Z M20.3125 108.375 C21.20985436 110.72991634 21.20985436 110.72991634 24.375 111.5625 C28.57755736 112.68725083 32.06363113 112.12041559 36.3125 111.375 C36.3125 111.045 36.3125 110.715 36.3125 110.375 C31.0325 109.715 25.7525 109.055 20.3125 108.375 Z " fill="#D8AB3C" transform="translate(97.6875,47.625)"/>
<path d="M0 0 C14.70684422 10.55483768 23.51223016 26.88715855 31.16015625 42.9140625 C32.49277493 45.61119764 33.93909139 48.10986039 35.56640625 50.63671875 C37.62890625 53.88671875 37.62890625 53.88671875 37.62890625 55.88671875 C38.28890625 55.88671875 38.94890625 55.88671875 39.62890625 55.88671875 C40.85546875 57.42578125 40.85546875 57.42578125 42.25390625 59.51171875 C45.43524257 63.93724106 49.1294315 66.87184227 53.62890625 69.88671875 C53.29890625 71.53671875 52.96890625 73.18671875 52.62890625 74.88671875 C30.72902023 75.31217666 7.42518579 71.51726122 -11.37109375 59.88671875 C-12.78261719 59.10167969 -12.78261719 59.10167969 -14.22265625 58.30078125 C-14.93164062 57.83414063 -15.640625 57.3675 -16.37109375 56.88671875 C-16.37109375 56.22671875 -16.37109375 55.56671875 -16.37109375 54.88671875 C-16.95503906 54.61601563 -17.53898437 54.3453125 -18.140625 54.06640625 C-28.88423688 48.38414567 -37.32422675 36.37210353 -41.55859375 25.2421875 C-42.55561755 21.12467093 -42.86769552 17.2378401 -42.93359375 13.01171875 C-42.94849854 12.29798096 -42.96340332 11.58424316 -42.97875977 10.84887695 C-42.87741783 5.74160297 -41.49695062 2.85596719 -38.37109375 -1.11328125 C-37.81421875 -1.83515625 -37.25734375 -2.55703125 -36.68359375 -3.30078125 C-25.22696774 -12.28029894 -11.00079965 -6.93638207 0 0 Z M-26.37109375 -2.11328125 C-27.35412636 0.87566927 -28.12492324 3.74291616 -28.37109375 6.88671875 C-26.6902554 10.18836552 -24.96744839 12.29036411 -22.37109375 14.88671875 C-18.78765399 15.05349157 -18.78765399 15.05349157 -15.37109375 14.88671875 C-15.37109375 14.55671875 -15.37109375 14.22671875 -15.37109375 13.88671875 C-17.68109375 13.22671875 -19.99109375 12.56671875 -22.37109375 11.88671875 C-22.49609375 6.13671875 -22.49609375 6.13671875 -21.37109375 3.88671875 C-18.34353989 2.87753413 -16.70311841 2.78862055 -13.62109375 3.69921875 C-11.37109375 4.88671875 -11.37109375 4.88671875 -10.37109375 6.88671875 C-10.13920969 14.19106658 -10.13920969 14.19106658 -11.37109375 17.88671875 C-16.04349355 19.86350328 -21.6008134 19.20482253 -26.37109375 17.88671875 C-25.49083319 19.8105872 -24.59115684 21.72557833 -23.68359375 23.63671875 C-23.18472656 24.7040625 -22.68585938 25.77140625 -22.171875 26.87109375 C-19.47949219 31.3798129 -16.85097985 33.47131213 -11.80859375 34.88671875 C-8.34324961 35.20725007 -8.34324961 35.20725007 -5.87109375 33.19921875 C-4.13273018 31.03744499 -4.13273018 31.03744499 -4.55859375 28.69921875 C-5.23342368 26.90572371 -5.23342368 26.90572371 -6.37109375 25.88671875 C-8.0372649 25.84608043 -9.7049747 25.84399775 -11.37109375 25.88671875 C-11.04109375 26.87671875 -10.71109375 27.86671875 -10.37109375 28.88671875 C-9.38109375 28.88671875 -8.39109375 28.88671875 -7.37109375 28.88671875 C-7.04109375 29.87671875 -6.71109375 30.86671875 -6.37109375 31.88671875 C-8.7040415 31.92913598 -11.03811942 31.92764812 -13.37109375 31.88671875 C-14.37109375 30.88671875 -14.37109375 30.88671875 -14.68359375 28.01171875 C-14.37109375 24.88671875 -14.37109375 24.88671875 -12.74609375 22.94921875 C-9.52137735 21.50658247 -7.72232589 21.88847939 -4.37109375 22.88671875 C-2.49609375 24.01171875 -2.49609375 24.01171875 -1.37109375 25.88671875 C-1.07346351 29.16065142 -1.1580726 31.92812356 -1.87109375 35.13671875 C-4.3393104 38.01630484 -7.81911344 38.7963434 -11.37109375 39.88671875 C-5.47867791 46.27016924 -0.40174743 50.40874171 8.4296875 51.07421875 C10.9215761 51.03972599 10.9215761 51.03972599 13.62890625 48.88671875 C14.54318964 46.97963032 14.54318964 46.97963032 14.62890625 44.88671875 C13.96890625 43.89671875 13.30890625 42.90671875 12.62890625 41.88671875 C10.04510448 41.63640898 10.04510448 41.63640898 7.62890625 41.88671875 C7.62890625 42.87671875 7.62890625 43.86671875 7.62890625 44.88671875 C10.10390625 44.39171875 10.10390625 44.39171875 12.62890625 43.88671875 C12.62890625 45.20671875 12.62890625 46.52671875 12.62890625 47.88671875 C9.25390625 48.51171875 9.25390625 48.51171875 5.62890625 48.88671875 C4.96890625 48.22671875 4.30890625 47.56671875 3.62890625 46.88671875 C3.65234375 44.72265625 3.65234375 44.72265625 4.00390625 42.26171875 C4.11476562 41.44445312 4.225625 40.6271875 4.33984375 39.78515625 C4.43523437 39.15867188 4.530625 38.5321875 4.62890625 37.88671875 C5.88703125 37.86609375 7.14515625 37.84546875 8.44140625 37.82421875 C9.50294922 37.80681641 9.50294922 37.80681641 10.5859375 37.7890625 C12.62890625 37.88671875 12.62890625 37.88671875 15.62890625 38.88671875 C17.27982512 41.77582678 17.64003536 43.61405566 17.50390625 46.94921875 C16.49829353 50.32520431 15.28424208 51.63370653 12.62890625 53.88671875 C11.96890625 54.54671875 11.30890625 55.20671875 10.62890625 55.88671875 C25.27590135 62.39886827 25.27590135 62.39886827 40.62890625 66.88671875 C40.28859375 66.46003906 39.94828125 66.03335938 39.59765625 65.59375 C33.10817297 57.22300694 27.71170572 48.26062707 23.06640625 38.76171875 C17.87899077 28.19953192 11.89253149 19.28969686 3.62890625 10.88671875 C2.89542969 10.14035156 2.16195312 9.39398438 1.40625 8.625 C-3.71159547 3.74183527 -8.65286158 1.03315755 -15.37109375 -1.11328125 C-16.36109375 -1.44328125 -17.35109375 -1.77328125 -18.37109375 -2.11328125 C-19.76549039 -2.17993501 -21.1627925 -2.19866324 -22.55859375 -2.17578125 C-23.81671875 -2.15515625 -25.07484375 -2.13453125 -26.37109375 -2.11328125 Z M-35.37109375 2.88671875 C-38.78571432 8.74035402 -38.7812057 13.32920513 -37.37109375 19.88671875 C-34.54427558 30.46612805 -27.34955249 39.57424154 -19.37109375 46.88671875 C-18.71109375 46.88671875 -18.05109375 46.88671875 -17.37109375 46.88671875 C-17.04109375 47.87671875 -16.71109375 48.86671875 -16.37109375 49.88671875 C-6.79749027 56.98157528 4.58316448 63.19177211 16.62890625 63.88671875 C13.2681192 61.19975286 9.63234996 59.14837144 5.87890625 57.07421875 C0.47071627 54.03110811 -4.5588241 50.82403029 -9.37109375 46.88671875 C-9.93828125 46.46390625 -10.50546875 46.04109375 -11.08984375 45.60546875 C-20.21351867 38.47241381 -26.19294235 28.91566081 -29.37109375 17.88671875 C-29.70109375 16.89671875 -30.03109375 15.90671875 -30.37109375 14.88671875 C-30.59670051 12.49417299 -30.7795797 10.09743752 -30.93359375 7.69921875 C-31.01738281 6.42691406 -31.10117188 5.15460938 -31.1875 3.84375 C-31.24808594 2.86792969 -31.30867188 1.89210938 -31.37109375 0.88671875 C-32.83334391 0.79426872 -32.83334391 0.79426872 -35.37109375 2.88671875 Z M-18.37109375 6.88671875 C-18.70109375 7.54671875 -19.03109375 8.20671875 -19.37109375 8.88671875 C-18.05109375 8.88671875 -16.73109375 8.88671875 -15.37109375 8.88671875 C-15.37109375 10.53671875 -15.37109375 12.18671875 -15.37109375 13.88671875 C-14.71109375 13.55671875 -14.05109375 13.22671875 -13.37109375 12.88671875 C-13.70109375 11.23671875 -14.03109375 9.58671875 -14.37109375 7.88671875 C-15.69109375 7.55671875 -17.01109375 7.22671875 -18.37109375 6.88671875 Z " fill="#E2B443" transform="translate(122.37109375,65.11328125)"/>
<path d="M0 0 C0.99257812 0.51949219 1.98515625 1.03898437 3.0078125 1.57421875 C12.88037139 6.66823415 22.67294725 10.80873189 33.34375 14 C34.2203125 14.33 35.096875 14.66 36 15 C36.875 17.125 36.875 17.125 37 19 C37.7425 18.95875 38.485 18.9175 39.25 18.875 C42.08758952 19.00398134 43.58773938 19.57051222 46 21 C46 21.66 46 22.32 46 23 C42.37 22.34 38.74 21.68 35 21 C35.71204241 23.64452575 35.71204241 23.64452575 38 26 C40.78230352 26.42635615 43.51295523 26.50566439 46.32421875 26.62109375 C49.19822099 27.02806925 50.20366829 27.51006316 52.1875 29.5625 C52.785625 30.366875 53.38375 31.17125 54 32 C50.535 32.495 50.535 32.495 47 33 C53.09781001 33.22084624 58.21642935 33.01167675 64 31 C63.67 30.67 63.34 30.34 63 30 C61.39125 30.309375 61.39125 30.309375 59.75 30.625 C56 31 56 31 53.0625 29.75 C52.381875 29.1725 51.70125 28.595 51 28 C51 27.01 51 26.02 51 25 C54.63 24.67 58.26 24.34 62 24 C62 24.99 62 25.98 62 27 C65.63 26.67 69.26 26.34 73 26 C73.495 27.485 73.495 27.485 74 29 C75.65 28.67 77.3 28.34 79 28 C79 28.66 79 29.32 79 30 C80.65 30 82.3 30 84 30 C80.68735796 32.20842803 80.16548604 32.19725756 76.4375 31.6875 C75.65246094 31.58824219 74.86742187 31.48898438 74.05859375 31.38671875 C72 31 72 31 70 30 C69.73316406 30.60328125 69.46632813 31.2065625 69.19140625 31.828125 C67.02884312 35.77037123 64.21733845 37.53791167 60 39 C53.60268081 39.8082972 45.43897105 40.6259807 40 37 C37.21144878 37.39571756 37.21144878 37.39571756 35 39 C32.10825409 39.20868269 29.27014331 39.32484791 26.375 39.375 C25.18197266 39.43107422 25.18197266 39.43107422 23.96484375 39.48828125 C18.48977567 39.56919359 15.79064894 38.55189174 11.57275391 35.10888672 C9.20503413 33.43950093 7.320997 33.60119735 4.5 33.875 C-1.96365207 34.17604681 -5.39746511 32.73502326 -10.8125 29.125 C-13.15473705 26.84968401 -14.05389558 25.09634174 -15 22 C-15.556875 21.99742187 -16.11375 21.99484375 -16.6875 21.9921875 C-23.35762934 21.65417419 -27.06877659 19.39376037 -32 15 C-31.67 14.01 -31.34 13.02 -31 12 C-29.02 12 -27.04 12 -25 12 C-26.32 10.35 -27.64 8.7 -29 7 C-21 7 -21 7 -17 9 C-16.01 9 -15.02 9 -14 9 C-13.5875 9.7425 -13.175 10.485 -12.75 11.25 C-10.35902008 15.00725416 -7.97925841 16.04654587 -4 18 C-3.34 18 -2.68 18 -2 18 C-2.02320312 17.03578125 -2.04640625 16.0715625 -2.0703125 15.078125 C-2.09738281 13.18320313 -2.09738281 13.18320313 -2.125 11.25 C-2.14820312 9.99703125 -2.17140625 8.7440625 -2.1953125 7.453125 C-2.01537302 4.27179508 -1.68998582 2.63478104 0 0 Z M2 8 C1.85024761 15.05651252 1.85024761 15.05651252 3 22 C4.43554025 22.50559908 5.8735202 23.0042749 7.3125 23.5 C8.51326172 23.91765625 8.51326172 23.91765625 9.73828125 24.34375 C12.08769422 25.13933107 12.08769422 25.13933107 15 25 C14.71517632 23.58194169 14.42181856 22.16559621 14.125 20.75 C13.88136719 19.56664062 13.88136719 19.56664062 13.6328125 18.359375 C12.39284804 13.72819937 12.39284804 13.72819937 8.8359375 10.734375 C8.02382812 10.40953125 7.21171875 10.0846875 6.375 9.75 C5.55773437 9.41484375 4.74046875 9.0796875 3.8984375 8.734375 C3.27195313 8.49203125 2.64546875 8.2496875 2 8 Z M-24 13 C-23.67 13.66 -23.34 14.32 -23 15 C-22.34 14.67 -21.68 14.34 -21 14 C-21.99 13.67 -22.98 13.34 -24 13 Z M17 15 C17.25662245 16.44010481 17.53090821 17.8770687 17.8125 19.3125 C17.96332031 20.11300781 18.11414063 20.91351563 18.26953125 21.73828125 C19.11680332 24.36165306 19.72262134 25.44179355 22 27 C24.74243563 27.36270484 24.74243563 27.36270484 27.6875 27.1875 C29.17830078 27.14689453 29.17830078 27.14689453 30.69921875 27.10546875 C31.45847656 27.07066406 32.21773437 27.03585938 33 27 C31.8946483 23.68394489 31.18550041 21.65093106 29 19 C25.12604083 17.12483891 21.178123 15.99854512 17 15 Z M-8 23 C-4.18639898 27.09709868 -4.18639898 27.09709868 1.125 28.0625 C2.548125 28.0315625 2.548125 28.0315625 4 28 C1.3139714 26.20931427 -0.6626589 25.33944209 -3.6875 24.375 C-4.49574219 24.11460937 -5.30398437 23.85421875 -6.13671875 23.5859375 C-6.75160156 23.39257812 -7.36648437 23.19921875 -8 23 Z M16 31 C16.89735436 33.35491634 16.89735436 33.35491634 20.0625 34.1875 C24.26505736 35.31225083 27.75113113 34.74541559 32 34 C32 33.67 32 33.34 32 33 C26.72 32.34 21.44 31.68 16 31 Z " fill="#CBA037" transform="translate(102,125)"/>
<path d="M0 0 C3.52746666 3.13897914 5.54559958 6.58143417 7.625 10.75 C11.00559251 17.32942393 14.75883806 23.589336 18.76220703 29.80761719 C20.50073775 32.52239448 21.97579602 34.92738806 23 38 C23.66 38 24.32 38 25 38 C26.48046875 39.57421875 26.48046875 39.57421875 28.1875 41.6875 C33.31274901 47.69531263 38.82423546 52.30413921 46.94140625 53.21875 C51.74442738 53.43748341 54.78049728 52.45319926 59 50 C59.99 49.67 60.98 49.34 62 49 C62.19627391 47.41773035 62.38165538 45.83410729 62.5625 44.25 C62.71912109 42.92742187 62.71912109 42.92742187 62.87890625 41.578125 C62.99626522 39.07951476 62.87827774 37.33341245 62 35 C58.9067839 33.08948417 57.02480063 32.99871721 53.375 33.1875 C50.10846273 33.78536068 50.10846273 33.78536068 48 35.25 C46.73747388 37.0578417 46.73747388 37.0578417 47.3125 39.6875 C47.539375 40.450625 47.76625 41.21375 48 42 C48.99 42.33 49.98 42.66 51 43 C50.95875 42.05125 50.9175 41.1025 50.875 40.125 C51 37 51 37 53 35 C56.0625 35.25 56.0625 35.25 59 36 C60.52846661 39.05693322 60.23242445 41.62984547 60 45 C58.9375 47.375 58.9375 47.375 57 49 C53.44635093 49.92131643 50.89668339 50.20853102 47.3125 49.375 C44.27803755 47.57072503 42.79636994 46.06048212 41 43 C40.39330543 38.22228026 40.51194704 36.03467227 42.5625 31.6875 C45.55879952 28.38388771 47.70954282 27.21562953 52 26 C56.94479918 25.85898862 61.05887913 26.95970676 65 30 C68.82392744 33.95481982 68.63130132 37.9843413 68.62109375 43.27441406 C68.39710672 48.75409681 67.04115041 51.84160734 63.078125 55.546875 C59.00236494 58.39684256 55.04982461 60 50 60 C50.0825 61.051875 50.165 62.10375 50.25 63.1875 C49.95257789 67.72318719 49.30500807 68.94286754 46 72 C43.444221 73.79625249 41.01921429 75.15913471 38 76 C34.25 75.25 34.25 75.25 31 74 C29.68 74 28.36 74 27 74 C26.67 73.34 26.34 72.68 26 72 C22.37 72 18.74 72 15 72 C15 71.01 15 70.02 15 69 C9.555 69.495 9.555 69.495 4 70 C4 70.99 4 71.98 4 73 C4.9590625 73.185625 4.9590625 73.185625 5.9375 73.375 C6.618125 73.58125 7.29875 73.7875 8 74 C8.495 74.99 8.495 74.99 9 76 C5.20411134 75.45773019 3.52788007 73.79872437 1 71 C1.33 70.01 1.66 69.02 2 68 C1.01 68 0.02 68 -1 68 C-1 67.34 -1 66.68 -1 66 C-1.7425 66.04125 -2.485 66.0825 -3.25 66.125 C-6.15588108 65.9929145 -7.64230332 65.68406906 -10 64 C-10.609375 61.921875 -10.609375 61.921875 -11 60 C-10.32839844 60.144375 -9.65679687 60.28875 -8.96484375 60.4375 C6.31789538 63.27713153 23.08998547 63.80783578 38 59 C35.67848975 56.55943794 33.17993374 54.53674964 30.5 52.5 C25.03125 48.34375 25.03125 48.34375 23 46 C23 45.34 23 44.68 23 44 C22.01 43.67 21.02 43.34 20 43 C18.32811866 40.90365138 16.80873435 38.83952229 15.3125 36.625 C14.89677734 36.03460938 14.48105469 35.44421875 14.05273438 34.8359375 C11 30.38465979 11 30.38465979 11 27 C10.34 27 9.68 27 9 27 C8.61328125 26.20335938 8.2265625 25.40671875 7.828125 24.5859375 C4.61844582 17.85324792 4.61844582 17.85324792 0.5625 11.625 C-1 9 -1 9 -0.75 5.625 C-0.5025 4.75875 -0.255 3.8925 0 3 C-0.66 3 -1.32 3 -2 3 C-2 2.34 -2 1.68 -2 1 C-1.34 0.67 -0.68 0.34 0 0 Z M44 62 C36.08 65.96 36.08 65.96 28 70 C28 70.33 28 70.66 28 71 C33.47269471 71.33506294 37.15805789 70.6071996 42 68 C43.92336969 65.97053147 43.92336969 65.97053147 45 64 C44.67 63.34 44.34 62.68 44 62 Z " fill="#DBAC3D" transform="translate(149,80)"/>
<path d="M0 0 C2.265625 -0.25390625 2.265625 -0.25390625 5 0 C6.921875 1.72265625 6.921875 1.72265625 8.75 4.0625 C18.21323549 15.27818651 32.30986616 23.90140945 47 26 C42.05 23.36 37.1 20.72 32 18 C32 16.68 32 15.36 32 14 C35.74451341 13.11893802 39.16512499 13 43 13 C45.1818424 12.19798729 45.1818424 12.19798729 45.6875 10.0625 C46.2113134 7.94249596 46.2113134 7.94249596 45 6 C43.35 6 41.7 6 40 6 C40 6.33 40 6.66 40 7 C41.65 7 43.3 7 45 7 C45 8.32 45 9.64 45 11 C42 13 42 13 39.4375 12.75 C37 12 37 12 35 10 C35.54347826 3.91304348 35.54347826 3.91304348 37 1 C43.75234522 -0.32833021 43.75234522 -0.32833021 47.375 0.625 C49.66541887 2.56304674 50.2733764 4.0935056 51 7 C50.91179159 11.23400378 50.29136371 12.67310413 47.4375 15.875 C46.633125 16.57625 45.82875 17.2775 45 18 C48.9423521 20.53005355 53.02932693 22.3565179 57.375 24.0625 C58.00921875 24.31837891 58.6434375 24.57425781 59.296875 24.83789062 C63.47633651 26.49688096 67.65877695 27.8277576 72 29 C71.51789063 28.49210937 71.03578125 27.98421875 70.5390625 27.4609375 C66.90293471 23.49830028 64.21237017 20.38831189 63 15 C65.475 14.505 65.475 14.505 68 14 C68.99 16.475 68.99 16.475 70 19 C70.66 19 71.32 19 72 19 C73.2265625 20.5390625 73.2265625 20.5390625 74.625 22.625 C77.80633632 27.05052231 81.50052525 29.98512352 86 33 C85.67 34.65 85.34 36.3 85 38 C63.10011398 38.42545791 39.79627954 34.63054247 21 23 C20.05898437 22.47664063 19.11796875 21.95328125 18.1484375 21.4140625 C17.43945312 20.94742188 16.73046875 20.48078125 16 20 C16 19.34 16 18.68 16 18 C15.42121094 17.73703125 14.84242187 17.4740625 14.24609375 17.203125 C8.22668046 13.97881319 2.91033802 8.55015719 -1 3 C-0.67 2.01 -0.34 1.02 0 0 Z " fill="#D5A93A" transform="translate(90,102)"/>
<path d="M0 0 C1.7005957 -0.03673828 1.7005957 -0.03673828 3.43554688 -0.07421875 C18.90401355 -0.12771201 29.05650368 7.24523803 40.24609375 17.2265625 C42.16814772 19.22491729 43.26050321 20.83411158 44.3125 23.375 C44.9725 23.375 45.6325 23.375 46.3125 23.375 C47.6015625 24.80078125 47.6015625 24.80078125 48.9375 26.6875 C49.38351563 27.30238281 49.82953125 27.91726562 50.2890625 28.55078125 C51.3125 30.375 51.3125 30.375 51.3125 33.375 C50.6525 33.375 49.9925 33.375 49.3125 33.375 C49.3125 34.035 49.3125 34.695 49.3125 35.375 C49.9725 35.375 50.6325 35.375 51.3125 35.375 C51.6425 36.365 51.9725 37.355 52.3125 38.375 C50.5625 38.25 50.5625 38.25 48.3125 37.375 C44.3125 32.15277778 44.3125 32.15277778 44.3125 29.375 C42.8275 28.88 42.8275 28.88 41.3125 28.375 C39.76953125 26.7734375 39.76953125 26.7734375 38.125 24.75 C29.58644185 14.78834882 19.47483521 7.4343067 6.1640625 5.5546875 C-2.85939141 4.98608629 -11.20517652 6.33055433 -19.6875 9.375 C-19.90212891 10.51001953 -19.90212891 10.51001953 -20.12109375 11.66796875 C-20.74865723 14.6672894 -21.67899504 17.48395244 -22.6875 20.375 C-24.3375 19.715 -25.9875 19.055 -27.6875 18.375 C-27.6875 19.365 -27.6875 20.355 -27.6875 21.375 C-30.9875 21.045 -34.2875 20.715 -37.6875 20.375 C-36.0880386 17.17607719 -34.85937081 15.22146265 -32.5625 12.625 C-32.02367188 12.01140625 -31.48484375 11.3978125 -30.9296875 10.765625 C-30.31480469 10.07726562 -30.31480469 10.07726562 -29.6875 9.375 C-33.75565373 11.22416079 -36.6969833 13.03942368 -39.6875 16.375 C-39.6875 15.715 -39.6875 15.055 -39.6875 14.375 C-40.3475 14.045 -41.0075 13.715 -41.6875 13.375 C-41.6875 10.375 -41.6875 10.375 -39.625 7.875 C-33.31455862 2.50441159 -28.62670518 2.0560013 -20.5546875 2.46484375 C-17.70835935 2.54897838 -17.70835935 2.54897838 -15.37231445 1.39038086 C-10.44165109 -0.4743667 -5.2143855 0.00582939 0 0 Z " fill="#E8BA4A" transform="translate(97.6875,47.625)"/>
<path d="M0 0 C0.99 0.33 1.98 0.66 3 1 C3.6875 3.0625 3.6875 3.0625 4 5 C4.7425 4.95875 5.485 4.9175 6.25 4.875 C9.08758952 5.00398134 10.58773938 5.57051222 13 7 C13 7.66 13 8.32 13 9 C9.37 8.34 5.74 7.68 2 7 C2.71204241 9.64452575 2.71204241 9.64452575 5 12 C7.78230352 12.42635615 10.51295523 12.50566439 13.32421875 12.62109375 C16.19822099 13.02806925 17.20366829 13.51006316 19.1875 15.5625 C19.785625 16.366875 20.38375 17.17125 21 18 C18.69 18.33 16.38 18.66 14 19 C20.09781001 19.22084624 25.21642935 19.01167675 31 17 C30.67 16.67 30.34 16.34 30 16 C28.9275 16.20625 27.855 16.4125 26.75 16.625 C23 17 23 17 20.0625 15.75 C19.381875 15.1725 18.70125 14.595 18 14 C18 13.01 18 12.02 18 11 C21.63 10.67 25.26 10.34 29 10 C29 10.99 29 11.98 29 13 C32.63 12.67 36.26 12.34 40 12 C40.495 13.485 40.495 13.485 41 15 C43.475 14.505 43.475 14.505 46 14 C46 14.66 46 15.32 46 16 C47.65 16 49.3 16 51 16 C47.68735796 18.20842803 47.16548604 18.19725756 43.4375 17.6875 C42.65246094 17.58824219 41.86742187 17.48898438 41.05859375 17.38671875 C39 17 39 17 37 16 C36.73316406 16.60328125 36.46632812 17.2065625 36.19140625 17.828125 C34.02884312 21.77037123 31.21733845 23.53791167 27 25 C20.60268081 25.8082972 12.43897105 26.6259807 7 23 C4.21144878 23.39571756 4.21144878 23.39571756 2 25 C-0.89174591 25.20868269 -3.72985669 25.32484791 -6.625 25.375 C-7.81802734 25.43107422 -7.81802734 25.43107422 -9.03515625 25.48828125 C-15.2453438 25.58005742 -18.39501923 24.20991539 -23 20 C-23 19.01 -23 18.02 -23 17 C-21 15.3125 -21 15.3125 -19 14 C-18.4740625 14.928125 -18.4740625 14.928125 -17.9375 15.875 C-15.27132566 18.79919121 -12.82008811 19.19577092 -9 20 C-7.68 20 -6.36 20 -5 20 C-7.64 19.34 -10.28 18.68 -13 18 C-13 17.01 -13 16.02 -13 15 C-8.71 15.33 -4.42 15.66 0 16 C-1.32 15.67 -2.64 15.34 -4 15 C-4 14.34 -4 13.68 -4 13 C-3.01 12.67 -2.02 12.34 -1 12 C-1.66 10.35 -2.32 8.7 -3 7 C-1.68 7.33 -0.36 7.66 1 8 C0.34 5.69 -0.32 3.38 -1 1 C-0.67 0.67 -0.34 0.34 0 0 Z " fill="#B4872B" transform="translate(135,139)"/>
<path d="M0 0 C0.99 0.33 1.98 0.66 3 1 C3.77842938 4.40562852 4.09978121 7.50765756 4 11 C4.969375 11.12375 5.93875 11.2475 6.9375 11.375 C7.948125 11.58125 8.95875 11.7875 10 12 C10.33 12.66 10.66 13.32 11 14 C10.34 14 9.68 14 9 14 C7.48046291 18.91582077 7.48046291 18.91582077 7 24 C8.65 22.68 10.3 21.36 12 20 C14 22 14 22 14 23.8125 C12.50376467 27.08551479 9.73527121 28.72060733 7 31 C5.71410873 33.93918004 5.91152488 36.8148958 6 40 C4.68 40 3.36 40 2 40 C1.67 39.67 1.34 39.34 1 39 C-0.65 39.66 -2.3 40.32 -4 41 C-6.67471978 36.98792032 -6.40341981 33.9606396 -6.4375 29.25 C-6.47037109 28.46367188 -6.50324219 27.67734375 -6.53710938 26.8671875 C-6.58595822 21.52045968 -5.63262138 18.61590704 -2.04785156 14.60888672 C-0.07956917 11.58675695 -1.39714678 8.39789995 -2 5 C-1.0625 2 -1.0625 2 0 0 Z M0 20 C-1.43305609 24.47830028 -2.44286767 28.23917255 -2 33 C-1.34 33.66 -0.68 34.32 0 35 C0.33 30.05 0.66 25.1 1 20 C0.67 20 0.34 20 0 20 Z " fill="#DFAF40" transform="translate(54,60)"/>
<path d="M0 0 C0.928125 0.495 1.85625 0.99 2.8125 1.5 C5.86527516 3.21289852 5.86527516 3.21289852 9 3 C9.680625 4.1446875 9.680625 4.1446875 10.375 5.3125 C11.81557435 8.18028294 11.81557435 8.18028294 14.6875 9.5625 C15.450625 10.036875 16.21375 10.51125 17 11 C17 12.32 17 13.64 17 15 C16.34 15.66 15.68 16.32 15 17 C19.09947304 20.13706517 19.09947304 20.13706517 24 21 C23.505 20.01 23.505 20.01 23 19 C26.75 16 26.75 16 29 16 C29 18.97 29 21.94 29 25 C30.32 25.66 31.64 26.32 33 27 C27.75889104 28.74703632 23.45245573 28.49235788 18.3125 26.75 C14.00772585 24.47577969 10.82526257 22.72912157 8.6875 18.25 C8.460625 17.5075 8.23375 16.765 8 16 C7.443125 15.99742187 6.88625 15.99484375 6.3125 15.9921875 C-0.35762934 15.65417419 -4.06877659 13.39376037 -9 9 C-8.67 8.01 -8.34 7.02 -8 6 C-6.02 6 -4.04 6 -2 6 C-3.32 4.35 -4.64 2.7 -6 1 C-4.7934375 1.0309375 -4.7934375 1.0309375 -3.5625 1.0625 C-1.06645115 1.29633621 -1.06645115 1.29633621 0 0 Z M-1 7 C-0.67 7.66 -0.34 8.32 0 9 C0.66 8.67 1.32 8.34 2 8 C1.01 7.67 0.02 7.34 -1 7 Z " fill="#C79E38" transform="translate(79,131)"/>
<path d="M0 0 C1.75 1.3125 1.75 1.3125 3 3 C3 3.66 3 4.32 3 5 C3.66 5 4.32 5 5 5 C6.2265625 6.5390625 6.2265625 6.5390625 7.625 8.625 C10.80633632 13.05052231 14.50052525 15.98512352 19 19 C18.505 21.475 18.505 21.475 18 24 C10.90849149 24.1695475 4.1461844 23.52768839 -2.875 22.5625 C-3.90625 22.42779297 -4.9375 22.29308594 -6 22.15429688 C-13.5799908 21.14000307 -13.5799908 21.14000307 -17 20 C-17 19.34 -17 18.68 -17 18 C-13.7 18 -10.4 18 -7 18 C-7 17.34 -7 16.68 -7 16 C-7.99 15.67 -8.98 15.34 -10 15 C-9.67 14.01 -9.34 13.02 -9 12 C-4.13103697 12.59619955 0.32790951 13.56976822 5 15 C4.51789063 14.49210938 4.03578125 13.98421875 3.5390625 13.4609375 C-0.09706529 9.49830028 -2.78762983 6.38831189 -4 1 C-2.1875 0.3125 -2.1875 0.3125 0 0 Z " fill="#C79D35" transform="translate(157,116)"/>
<path d="M0 0 C0.66 0.33 1.32 0.66 2 1 C1.67 1.66 1.34 2.32 1 3 C2.32 3 3.64 3 5 3 C6.35439668 5.70879335 6.06501451 8.00933268 6 11 C5.01 11 4.02 11 3 11 C3.14230808 12.41702513 3.28900746 13.8336096 3.4375 15.25 C3.55931641 16.43335938 3.55931641 16.43335938 3.68359375 17.640625 C3.97634993 19.82364639 4.42064419 21.8773182 5 24 C5.91523437 24.18175781 6.83046875 24.36351563 7.7734375 24.55078125 C8.96195313 24.80214844 10.15046875 25.05351563 11.375 25.3125 C13.15003906 25.67794922 13.15003906 25.67794922 14.9609375 26.05078125 C18 27 18 27 20 30 C21.30518475 31.03647024 22.63461347 32.04422943 24 33 C23.67 33.99 23.34 34.98 23 36 C21.02 35.67 19.04 35.34 17 35 C18.485 37.475 18.485 37.475 20 40 C18.02 40.66 16.04 41.32 14 42 C11.96564469 38.27034861 11 36.33094958 11 32 C10.2575 31.896875 9.515 31.79375 8.75 31.6875 C5.8026481 30.95066203 4.21616926 30.05200858 2 28 C2 27.34 2 26.68 2 26 C1.34 26 0.68 26 0 26 C-2.99801348 20.25380749 -3.58677182 15.45448997 -3 9 C-2.67 8.01 -2.34 7.02 -2 6 C-2.66 6 -3.32 6 -4 6 C-4 5.01 -4 4.02 -4 3 C-2.68 2.67 -1.36 2.34 0 2 C0 1.34 0 0.68 0 0 Z " fill="#D0A339" transform="translate(55,97)"/>
<path d="M0 0 C2.265625 -0.25390625 2.265625 -0.25390625 5 0 C6.921875 1.72265625 6.921875 1.72265625 8.75 4.0625 C18.92369026 16.12020697 33.57846565 23.86341674 49 27 C48.505 28.485 48.505 28.485 48 30 C47.34 30 46.68 30 46 30 C45.67 30.66 45.34 31.32 45 32 C45 31.34 45 30.68 45 30 C44.05125 30.2475 43.1025 30.495 42.125 30.75 C33.16216686 31.97138808 23.00310574 24.88532806 16 20 C16 19.34 16 18.68 16 18 C15.42121094 17.73703125 14.84242187 17.4740625 14.24609375 17.203125 C8.22668046 13.97881319 2.91033802 8.55015719 -1 3 C-0.67 2.01 -0.34 1.02 0 0 Z " fill="#D5A539" transform="translate(90,102)"/>
<path d="M0 0 C5.65920911 4.41418311 9.29041025 8.88748197 13 15 C13.7731958 16.24716797 13.7731958 16.24716797 14.56201172 17.51953125 C18.2958416 23.62495857 21.63088967 29.84824489 24.6953125 36.3125 C25.98624764 39.12630509 25.98624764 39.12630509 28 42 C28 42.99 28 43.98 28 45 C26.35 45 24.7 45 23 45 C22.2039728 43.61183267 21.40817169 42.22353537 20.61328125 40.8347168 C19.90228481 39.59328134 19.19000844 38.35257819 18.4765625 37.11254883 C16.52220045 33.70551757 14.60394986 30.28493112 12.74609375 26.82421875 C8.5533982 19.06928079 4.35959131 12.2382912 -2 6 C-0.68 5.01 0.64 4.02 2 3 C0.68 2.67 -0.64 2.34 -2 2 C-1.34 1.34 -0.68 0.68 0 0 Z " fill="#D8AC3C" transform="translate(129,72)"/>
<path d="M0 0 C11.88 1.485 11.88 1.485 24 3 C24.33 3.99 24.66 4.98 25 6 C25.969375 6.144375 26.93875 6.28875 27.9375 6.4375 C31 7 31 7 32 8 C33.69141656 7.91036938 35.37959602 7.75422324 37.0625 7.5625 C37.98160156 7.46066406 38.90070313 7.35882813 39.84765625 7.25390625 C40.91306641 7.12822266 40.91306641 7.12822266 42 7 C41.67 7.99 41.34 8.98 41 10 C42.98 10 44.96 10 47 10 C47 11.65 47 13.3 47 15 C45.5199159 14.88637738 44.04089926 14.75877092 42.5625 14.625 C41.73878906 14.55539063 40.91507813 14.48578125 40.06640625 14.4140625 C39.04353516 14.20910156 39.04353516 14.20910156 38 14 C37.505 13.01 37.505 13.01 37 12 C33.37 12 29.74 12 26 12 C26 11.01 26 10.02 26 9 C22.37 9.33 18.74 9.66 15 10 C15 10.99 15 11.98 15 13 C15.639375 13.12375 16.27875 13.2475 16.9375 13.375 C17.618125 13.58125 18.29875 13.7875 19 14 C19.33 14.66 19.66 15.32 20 16 C16.20411134 15.45773019 14.52788007 13.79872437 12 11 C12.33 10.01 12.66 9.02 13 8 C12.01 8 11.02 8 10 8 C10 7.34 10 6.68 10 6 C9.2575 6.04125 8.515 6.0825 7.75 6.125 C4.84411892 5.9929145 3.35769668 5.68406906 1 4 C0.67 2.68 0.34 1.36 0 0 Z " fill="#BE942F" transform="translate(138,140)"/>
<path d="M0 0 C3.0625 0.25 3.0625 0.25 6 1 C7.52846661 4.05693322 7.23242445 6.62984547 7 10 C5.9375 12.375 5.9375 12.375 4 14 C0.44635093 14.92131643 -2.10331661 15.20853102 -5.6875 14.375 C-8.65821922 12.60862641 -10.19034207 10.94907218 -12 8 C-12.25 4.6875 -12.25 4.6875 -12 2 C-10.35 2 -8.7 2 -7 2 C-6.01 3.98 -5.02 5.96 -4 8 C-3.34 8 -2.68 8 -2 8 C-2.04125 7.05125 -2.0825 6.1025 -2.125 5.125 C-2 2 -2 2 0 0 Z " fill="#D6A83C" transform="translate(202,115)"/>
<path d="M0 0 C0 1.32 0 2.64 0 4 C-0.66 4.66 -1.32 5.32 -2 6 C2.09947304 9.13706517 2.09947304 9.13706517 7 10 C6.67 9.34 6.34 8.68 6 8 C9.75 5 9.75 5 12 5 C12 7.97 12 10.94 12 14 C13.32 14.66 14.64 15.32 16 16 C10.75889104 17.74703632 6.45245573 17.49235788 1.3125 15.75 C-2.94025617 13.50326089 -6.10589766 11.70692265 -8.375 7.375 C-9 5 -9 5 -8 3 C-7.360625 3.185625 -6.72125 3.37125 -6.0625 3.5625 C-5.0415625 3.7790625 -5.0415625 3.7790625 -4 4 C-3.67 3.67 -3.34 3.34 -3 3 C-3.99 2.67 -4.98 2.34 -6 2 C-6 1.34 -6 0.68 -6 0 C-3 -1 -3 -1 0 0 Z " fill="#B68F2D" transform="translate(96,142)"/>
<path d="M0 0 C0 0.99 0 1.98 0 3 C5.445 2.505 5.445 2.505 11 2 C11.33 2.99 11.66 3.98 12 5 C13.65 4.67 15.3 4.34 17 4 C17 4.66 17 5.32 17 6 C18.65 6 20.3 6 22 6 C18.68735796 8.20842803 18.16548604 8.19725756 14.4375 7.6875 C13.25994141 7.53861328 13.25994141 7.53861328 12.05859375 7.38671875 C10 7 10 7 8 6 C7.566875 6.928125 7.566875 6.928125 7.125 7.875 C6 10 6 10 4 12 C1.3984375 12.1953125 1.3984375 12.1953125 -1.625 12.125 C-3.12933594 12.09792969 -3.12933594 12.09792969 -4.6640625 12.0703125 C-5.43492187 12.04710937 -6.20578125 12.02390625 -7 12 C-7 11.34 -7 10.68 -7 10 C-4.03 9.01 -1.06 8.02 2 7 C1.67 6.67 1.34 6.34 1 6 C-0.60875 6.309375 -0.60875 6.309375 -2.25 6.625 C-6 7 -6 7 -8.9375 5.75 C-9.618125 5.1725 -10.29875 4.595 -11 4 C-11 3.01 -11 2.02 -11 1 C-9.54182203 0.83197949 -8.0834516 0.66562857 -6.625 0.5 C-5.81289062 0.4071875 -5.00078125 0.314375 -4.1640625 0.21875 C-2 0 -2 0 0 0 Z " fill="#B99133" transform="translate(164,149)"/>
<path d="M0 0 C8.50556701 -0.97604867 13.33432299 1.83541246 20 7 C21.35934756 8.30680135 22.70191788 9.63232373 24 11 C23.67 11.99 23.34 12.98 23 14 C23.99 14.33 24.98 14.66 26 15 C25.67 15.99 25.34 16.98 25 18 C21.30637037 16.96116667 19.14311763 15.28579668 16.4375 12.6875 C11.61984831 8.2674664 6.08178135 6.19957759 0 4 C0 2.68 0 1.36 0 0 Z " fill="#EABB4E" transform="translate(105,60)"/>
<path d="M0 0 C3.42798445 1.16697343 4.88859294 2.00544352 6.9375 5 C7.4363668 8.91966774 7.26887174 11.2741381 5.625 14.875 C3.9375 17 3.9375 17 0.9375 18 C0.84837781 14.16774573 1.05882271 10.73437848 1.9375 7 C-0.0425 6.34 -2.0225 5.68 -4.0625 5 C-3.7325 5.66 -3.4025 6.32 -3.0625 7 C-1.03786745 7.65213292 -1.03786745 7.65213292 0.9375 8 C0.9375 8.99 0.9375 9.98 0.9375 11 C-2.4375 11.625 -2.4375 11.625 -6.0625 12 C-8.0625 10 -8.0625 10 -8.5 7.125 C-8.0625 4 -8.0625 4 -5.9375 1.5625 C-3.0625 0 -3.0625 0 0 0 Z " fill="#CF9E32" transform="translate(115.0625,86)"/>
<path d="M0 0 C1.99825961 2.99738941 2.27550398 3.63347508 2.25 7 C2.25515625 7.680625 2.2603125 8.36125 2.265625 9.0625 C2 11 2 11 0 14 C-2.97 13.505 -2.97 13.505 -6 13 C-6 12.34 -6 11.68 -6 11 C-7.98 10.01 -9.96 9.02 -12 8 C-12.25 2.375 -12.25 2.375 -10 -1 C-6.00471255 -2.33176248 -3.90144863 -1.41870859 0 0 Z M-7 3 C-7.33 3.66 -7.66 4.32 -8 5 C-6.68 5 -5.36 5 -4 5 C-4 6.65 -4 8.3 -4 10 C-3.34 9.67 -2.68 9.34 -2 9 C-2.33 7.35 -2.66 5.7 -3 4 C-4.32 3.67 -5.64 3.34 -7 3 Z " fill="#E8BD47" transform="translate(111,69)"/>
<path d="M0 0 C2.23778305 3.21681314 3 5.08666998 3 9 C1.35 9 -0.3 9 -2 9 C-2.33 7.68 -2.66 6.36 -3 5 C-4.65 5 -6.3 5 -8 5 C-8 5.33 -8 5.66 -8 6 C-6.35 6 -4.7 6 -3 6 C-3 7.32 -3 8.64 -3 10 C-6 12 -6 12 -8.5625 11.75 C-11 11 -11 11 -13 9 C-12.45652174 2.91304348 -12.45652174 2.91304348 -11 0 C-7.11762298 -1.29412567 -3.89652698 -1.33943115 0 0 Z " fill="#DFB33E" transform="translate(138,103)"/>
<path d="M0 0 C2.97 0.99 5.94 1.98 9 3 C9 2.34 9 1.68 9 1 C9.66 1 10.32 1 11 1 C11 1.66 11 2.32 11 3 C11.99 2.67 12.98 2.34 14 2 C14.66 2.66 15.32 3.32 16 4 C18.32275177 4.40047444 20.65739357 4.7397104 23 5 C23 5.66 23 6.32 23 7 C25.97 7.495 25.97 7.495 29 8 C29 8.33 29 8.66 29 9 C18.44191344 8.03644647 18.44191344 8.03644647 14 7 C13.67 7.99 13.34 8.98 13 10 C11.824375 9.505 11.824375 9.505 10.625 9 C8.15667503 7.88133489 8.15667503 7.88133489 6 8 C6 8.99 6 9.98 6 11 C3.0625 10.25 3.0625 10.25 0 9 C-1.5924178 5.92132558 -0.81627167 3.26508669 0 0 Z " fill="#D6AB3F" transform="translate(108,147)"/>
<path d="M0 0 C1.75 1.3125 1.75 1.3125 3 3 C3 3.66 3 4.32 3 5 C3.66 5 4.32 5 5 5 C6.296875 6.609375 6.296875 6.609375 7.75 8.75 C10.47415169 12.53428954 12.97206634 14.69832362 17 17 C16.67 17.66 16.34 18.32 16 19 C12.04 18.67 8.08 18.34 4 18 C4 16.68 4 15.36 4 14 C2.77633165 12.22616076 2.77633165 12.22616076 1.125 10.625 C-1.64430356 7.60097277 -3.01376446 5.04356572 -4 1 C-2.1875 0.3125 -2.1875 0.3125 0 0 Z " fill="#D0A337" transform="translate(157,116)"/>
<path d="M0 0 C-0.25 2.375 -0.25 2.375 -1 5 C-3.0625 6.3125 -3.0625 6.3125 -5 7 C-5 6.34 -5 5.68 -5 5 C-9.67239145 7.13206212 -13.59287819 9.02502456 -17 13 C-17 12.34 -17 11.68 -17 11 C-17.66 10.67 -18.32 10.34 -19 10 C-19 7 -19 7 -16.9375 4.5 C-11.37847715 -0.23108327 -7.15782519 -1.60685872 0 0 Z " fill="#EFC251" transform="translate(75,51)"/>
<path d="M0 0 C6.6 0.99 13.2 1.98 20 3 C20 3.33 20 3.66 20 4 C18.02 4 16.04 4 14 4 C14 4.66 14 5.32 14 6 C15.65 6 17.3 6 19 6 C19 7.32 19 8.64 19 10 C17.68 10 16.36 10 15 10 C15 10.99 15 11.98 15 13 C15.639375 13.12375 16.27875 13.2475 16.9375 13.375 C17.618125 13.58125 18.29875 13.7875 19 14 C19.33 14.66 19.66 15.32 20 16 C16.20411134 15.45773019 14.52788007 13.79872437 12 11 C12.33 10.01 12.66 9.02 13 8 C12.01 8 11.02 8 10 8 C10 7.34 10 6.68 10 6 C9.2575 6.04125 8.515 6.0825 7.75 6.125 C4.84411892 5.9929145 3.35769668 5.68406906 1 4 C0.67 2.68 0.34 1.36 0 0 Z " fill="#D8AA42" transform="translate(138,140)"/>
<path d="M0 0 C0.99 0 1.98 0 3 0 C3.61175404 2.07516567 4.18854831 4.16066337 4.75 6.25 C5.07484375 7.41015625 5.3996875 8.5703125 5.734375 9.765625 C6 13 6 13 4.078125 15.421875 C3.39234375 15.94265625 2.7065625 16.4634375 2 17 C-3.75 15.125 -3.75 15.125 -6 14 C-6 13.34 -6 12.68 -6 12 C-5.34 12 -4.68 12 -4 12 C-3.67 10.68 -3.34 9.36 -3 8 C-2.01 8.33 -1.02 8.66 0 9 C0 6.03 0 3.06 0 0 Z " fill="#C39B34" transform="translate(100,134)"/>
<path d="M0 0 C2.475 1.485 2.475 1.485 5 3 C3.53618916 6.41555863 1.93784251 8.69853054 -1 11 C-3.70068723 11.31927864 -5.94793386 11.42789078 -8.625 11.3125 C-9.6459375 11.29799805 -9.6459375 11.29799805 -10.6875 11.28320312 C-15.65959821 11.17020089 -15.65959821 11.17020089 -18 10 C-17.67 9.01 -17.34 8.02 -17 7 C-15.205625 7.0928125 -15.205625 7.0928125 -13.375 7.1875 C-9.23783319 7.20214484 -6.59939429 6.0926711 -3 4 C-2.01 3.67 -1.02 3.34 0 3 C0 2.01 0 1.02 0 0 Z " fill="#C39B35" transform="translate(211,126)"/>
<path d="M0 0 C1.32 0 2.64 0 4 0 C3.25 4.75 3.25 4.75 1 7 C-2.125 6.625 -2.125 6.625 -5 6 C-4.67 7.98 -4.34 9.96 -4 12 C-8.51478398 11.46884894 -11.34666857 9.63379708 -15 7 C-14.67 6.01 -14.34 5.02 -14 4 C-11.15910143 3.33155328 -8.80879329 3.00764827 -5.875 3.125 C-2.98419454 3.3093062 -2.98419454 3.3093062 -1.375 1.5 C-0.92125 1.005 -0.4675 0.51 0 0 Z " fill="#D9AC3B" transform="translate(136,112)"/>
<path d="M0 0 C0.95261719 0.34933594 1.90523438 0.69867188 2.88671875 1.05859375 C4.15357779 1.51841666 5.4205087 1.97804162 6.6875 2.4375 C7.31333984 2.66759766 7.93917969 2.89769531 8.58398438 3.13476562 C12.03242308 4.38053667 15.3813479 5.39804449 19 6 C18.67 6.99 18.34 7.98 18 9 C17.34 9 16.68 9 16 9 C15.67 9.66 15.34 10.32 15 11 C15 10.34 15 9.68 15 9 C14.01 9.226875 13.02 9.45375 12 9.6875 C7.38990295 10.3851425 4.20066447 8.8423967 0 7 C0 4.69 0 2.38 0 0 Z " fill="#CB9934" transform="translate(120,123)"/>
<path d="M0 0 C1.43791516 0.14168137 2.8753237 0.28851043 4.3125 0.4375 C5.11300781 0.51871094 5.91351563 0.59992188 6.73828125 0.68359375 C9 1 9 1 12 2 C11.67 3.65 11.34 5.3 11 7 C4.88514973 7.09706112 -0.93303301 6.77040851 -7 6 C-7 5.01 -7 4.02 -7 3 C-7.66 3 -8.32 3 -9 3 C-9 2.34 -9 1.68 -9 1 C-6.03 1.33 -3.06 1.66 0 2 C0 1.34 0 0.68 0 0 Z " fill="#AC8629" transform="translate(164,133)"/>
<path d="M0 0 C2.23828125 -0.2734375 2.23828125 -0.2734375 5 0 C7.16796875 1.8984375 7.16796875 1.8984375 9.1875 4.375 C9.86167969 5.18710938 10.53585938 5.99921875 11.23046875 6.8359375 C11.81441406 7.55007812 12.39835937 8.26421875 13 9 C13.66 9.66 14.32 10.32 15 11 C12.92179688 12.26176618 11.58589926 13.04882494 9.125 12.84375 C6.17605448 11.67284516 4.7856453 9.84634694 2.75 7.4375 C2.04359375 6.61121094 1.3371875 5.78492187 0.609375 4.93359375 C0.07828125 4.29550781 -0.4528125 3.65742187 -1 3 C-0.67 2.01 -0.34 1.02 0 0 Z " fill="#D4AA3A" transform="translate(90,102)"/>
<path d="M0 0 C0.99 0 1.98 0 3 0 C4.5703125 2.01171875 4.5703125 2.01171875 6.125 4.6875 C6.64320313 5.55761719 7.16140625 6.42773438 7.6953125 7.32421875 C9.62594958 11.28375886 10.4089827 13.7730519 9 18 C5.42910719 16.8097024 4.90176928 15.82580061 2.875 12.75 C2.35679687 11.98171875 1.83859375 11.2134375 1.3046875 10.421875 C-0.07055363 7.86903218 -0.6898288 5.87613296 -1 3 C-0.67 2.01 -0.34 1.02 0 0 Z " fill="#E2B541" transform="translate(160,102)"/>
<path d="M0 0 C3 0.3125 3 0.3125 6 1 C7.52846661 4.05693322 7.23242445 6.62984547 7 10 C5.875 12.375 5.875 12.375 4 14 C0.8125 14.75 0.8125 14.75 -2 15 C-2 14.34 -2 13.68 -2 13 C-2.99 12.67 -3.98 12.34 -5 12 C-2.39417629 11.06934867 -1.35801776 10.85082593 1.25 11.9375 C1.8275 12.288125 2.405 12.63875 3 13 C2.7215625 11.7934375 2.7215625 11.7934375 2.4375 10.5625 C2.293125 9.716875 2.14875 8.87125 2 8 C2.33 7.67 2.66 7.34 3 7 C0.525 6.01 0.525 6.01 -2 5 C-1.125 1.125 -1.125 1.125 0 0 Z " fill="#C3992D" transform="translate(202,115)"/>
<path d="M0 0 C2.97 0 5.94 0 9 0 C9 0.66 9 1.32 9 2 C11.97 2 14.94 2 18 2 C14.79480385 5.23083772 12.07665352 5.38757296 7.75195312 5.41015625 C6.98818359 5.39855469 6.22441406 5.38695312 5.4375 5.375 C4.66986328 5.38660156 3.90222656 5.39820313 3.11132812 5.41015625 C-2.49319145 5.3808388 -2.49319145 5.3808388 -5.02734375 3.4765625 C-5.34832031 2.98929688 -5.66929687 2.50203125 -6 2 C-4.02 2 -2.04 2 0 2 C0 1.34 0 0.68 0 0 Z " fill="#CBA03B" transform="translate(148,159)"/>
<path d="M0 0 C0 2.97 0 5.94 0 9 C1.32 9.66 2.64 10.32 4 11 C-1.23516726 12.74505575 -5.97166401 12.66668136 -11 10.5 C-11.99 10.005 -12.98 9.51 -14 9 C-13.34 8.34 -12.68 7.68 -12 7 C-11.01 7 -10.02 7 -9 7 C-9 7.66 -9 8.32 -9 9 C-7.02 8.67 -5.04 8.34 -3 8 C-2.77390663 5.87635519 -2.77390663 5.87635519 -4.5 4.375 C-4.995 3.92125 -5.49 3.4675 -6 3 C-2.25 0 -2.25 0 0 0 Z " fill="#AE7D24" transform="translate(108,147)"/>
<path d="M0 0 C2.31 0.33 4.62 0.66 7 1 C7 1.66 7 2.32 7 3 C9.64 3 12.28 3 15 3 C15.33 2.34 15.66 1.68 16 1 C16.66 2.32 17.32 3.64 18 5 C15.3333581 6.33332095 13.83319697 5.67102033 11 5 C11.99 6.65 12.98 8.3 14 10 C12.02 10.66 10.04 11.32 8 12 C5.96564469 8.27034861 5 6.33094958 5 2 C3.35 1.67 1.7 1.34 0 1 C0 0.67 0 0.34 0 0 Z " fill="#D3A73B" transform="translate(61,127)"/>
<path d="M0 0 C1.32 0.66 2.64 1.32 4 2 C4 6.95 4 11.9 4 17 C2.68 16.67 1.36 16.34 0 16 C-1.30677037 11.09961113 -1.31718286 6.03761016 -1 1 C-0.67 0.67 -0.34 0.34 0 0 Z " fill="#DCB236" transform="translate(213,112)"/>
<path d="M0 0 C7.80251346 4.12208259 7.80251346 4.12208259 10 8 C10 8.66 10 9.32 10 10 C9.34 10 8.68 10 8 10 C7.67 10.66 7.34 11.32 7 12 C5.3278148 10.88321917 3.66237197 9.75633648 2 8.625 C0.6078125 7.68527344 0.6078125 7.68527344 -0.8125 6.7265625 C-1.534375 6.15679687 -2.25625 5.58703125 -3 5 C-3 3 -3 3 -1.5 1.375 C-1.005 0.92125 -0.51 0.4675 0 0 Z " fill="#CDA036" transform="translate(180,126)"/>
<path d="M0 0 C1.62752231 0.25523874 3.25203196 0.52974494 4.875 0.8125 C6.23238281 1.03873047 6.23238281 1.03873047 7.6171875 1.26953125 C10 2 10 2 12 5 C12.33 5.99 12.66 6.98 13 8 C9.71303767 8.79953138 8.28976808 9.09658936 5 8 C5 7.34 5 6.68 5 6 C2.03 5.67 -0.94 5.34 -4 5 C-3.67 4.01 -3.34 3.02 -3 2 C-2.01 2 -1.02 2 0 2 C0 1.34 0 0.68 0 0 Z " fill="#C49931" transform="translate(63,122)"/>
<path d="M0 0 C0.66 1.65 1.32 3.3 2 5 C1.030625 5.45375 0.06125 5.9075 -0.9375 6.375 C-4.07079582 7.65786221 -4.07079582 7.65786221 -5 10 C-6.98 10 -8.96 10 -11 10 C-9.68745073 6.0623522 -8.1247232 3.7341328 -5 1 C-3 0 -3 0 0 0 Z " fill="#DAAC3A" transform="translate(201,107)"/>
<path d="M0 0 C4.92127034 -0.16682272 8.50343896 -0.24828052 13 2 C12.67 2.99 12.34 3.98 12 5 C12.33 5.99 12.66 6.98 13 8 C8.38 7.01 3.76 6.02 -1 5 C-0.67 3.35 -0.34 1.7 0 0 Z " fill="#EDC24E" transform="translate(103,48)"/>
<path d="M0 0 C-3.08672897 4.63009345 -6.75495732 7.25165244 -12 9 C-12.66 8.67 -13.32 8.34 -14 8 C-14 6.35 -14 4.7 -14 3 C-4.45454545 -2.22727273 -4.45454545 -2.22727273 0 0 Z " fill="#D5AA3A" transform="translate(199,147)"/>
<path d="M0 0 C0.33 2.64 0.66 5.28 1 8 C-3.74018901 6.16508812 -8.36413251 4.08058541 -13 2 C-12.67 1.34 -12.34 0.68 -12 0 C-7.8265198 -1.35024359 -4.26066408 -0.7518819 0 0 Z " fill="#C1972F" transform="translate(135,139)"/>
<path d="M0 0 C0.8353125 0.928125 0.8353125 0.928125 1.6875 1.875 C4.06645178 4.06106379 5.96357096 4.98785699 9 6 C9 6.66 9 7.32 9 8 C8.01 8.495 8.01 8.495 7 9 C7.33 9.66 7.66 10.32 8 11 C4.01781501 10.72217314 2.25090158 10.20726652 -0.875 7.625 C-3 5 -3 5 -3 2 C-2.01 1.34 -1.02 0.68 0 0 Z " fill="#C09734" transform="translate(115,153)"/>
<path d="M0 0 C1.65 0 3.3 0 5 0 C6 3 6 3 5.5 6.4375 C5.0656094 9.532533 4.9694364 11.13732332 6 14 C4.35 14 2.7 14 1 14 C0.67 9.38 0.34 4.76 0 0 Z " fill="#ECC34E" transform="translate(90,62)"/>
<path d="M0 0 C0.66 0 1.32 0 2 0 C1.67 1.32 1.34 2.64 1 4 C4.96 3.34 8.92 2.68 13 2 C13 2.66 13 3.32 13 4 C15.64 3.67 18.28 3.34 21 3 C21 4.65 21 6.3 21 8 C19.5199159 7.88637738 18.04089926 7.75877092 16.5625 7.625 C15.73878906 7.55539063 14.91507813 7.48578125 14.06640625 7.4140625 C13.38449219 7.27742187 12.70257813 7.14078125 12 7 C11.67 6.34 11.34 5.68 11 5 C7.37 5 3.74 5 0 5 C0 3.35 0 1.7 0 0 Z " fill="#B48F31" transform="translate(164,147)"/>
<path d="M0 0 C1.65 0.33 3.3 0.66 5 1 C4.34 2.98 3.68 4.96 3 7 C3.66 7 4.32 7 5 7 C5.33 7.99 5.66 8.98 6 10 C4.22880197 9.85866501 2.45804713 9.71176792 0.6875 9.5625 C-0.29863281 9.48128906 -1.28476563 9.40007812 -2.30078125 9.31640625 C-5 9 -5 9 -8 8 C-8 7.34 -8 6.68 -8 6 C-4.7 6 -1.4 6 2 6 C2 5.34 2 4.68 2 4 C1.01 3.67 0.02 3.34 -1 3 C-0.67 2.01 -0.34 1.02 0 0 Z " fill="#D4A83A" transform="translate(148,128)"/>
<path d="M0 0 C0.66 0 1.32 0 2 0 C2 0.99 2 1.98 2 3 C7.445 2.505 7.445 2.505 13 2 C13.33 2.99 13.66 3.98 14 5 C15.65 4.67 17.3 4.34 19 4 C19 4.66 19 5.32 19 6 C20.65 6 22.3 6 24 6 C19.8136477 8.79090153 16.79017408 7.92053167 12 7 C10.33333333 6.33333333 8.66666667 5.66666667 7 5 C4.00968115 4.54307522 1.01411524 4.24953459 -2 4 C-1.34 2.68 -0.68 1.36 0 0 Z " fill="#9F7B1D" transform="translate(162,149)"/>
<path d="M0 0 C2.97 0 5.94 0 9 0 C9 0.66 9 1.32 9 2 C10.32 2.66 11.64 3.32 13 4 C13 4.33 13 4.66 13 5 C10.70890403 5.08075665 8.41700733 5.13907731 6.125 5.1875 C4.21074219 5.23970703 4.21074219 5.23970703 2.2578125 5.29296875 C1.18273437 5.19628906 0.10765625 5.09960938 -1 5 C-1.66 4.01 -2.32 3.02 -3 2 C-2.01 2 -1.02 2 0 2 C0 1.34 0 0.68 0 0 Z " fill="#966F1D" transform="translate(124,159)"/>
<path d="M0 0 C0.928125 0.495 1.85625 0.99 2.8125 1.5 C5.86527516 3.21289852 5.86527516 3.21289852 9 3 C9.33 3.99 9.66 4.98 10 6 C6.29749549 6.71326707 2.77344438 7.23849016 -1 7 C-3.53682715 5.25324402 -4.39641939 3.70949827 -6 1 C-4.7934375 1.0309375 -4.7934375 1.0309375 -3.5625 1.0625 C-1.06645115 1.29633621 -1.06645115 1.29633621 0 0 Z " fill="#C79C32" transform="translate(79,131)"/>
<path d="M0 0 C4.95 0 9.9 0 15 0 C14.67 1.65 14.34 3.3 14 5 C10.37 5 6.74 5 3 5 C2.67 3.68 2.34 2.36 2 1 C1.34 0.67 0.68 0.34 0 0 Z " fill="#DEB641" transform="translate(88,48)"/>
<path d="M0 0 C0.99 0 1.98 0 3 0 C3 0.66 3 1.32 3 2 C2.01 2.495 2.01 2.495 1 3 C0.67 3.99 0.34 4.98 0 6 C-1.62324086 6.22162329 -3.248721 6.42689803 -4.875 6.625 C-6.23238281 6.79902344 -6.23238281 6.79902344 -7.6171875 6.9765625 C-8.40351563 6.98429688 -9.18984375 6.99203125 -10 7 C-10.66 6.34 -11.32 5.68 -12 5 C-12 4.01 -12 3.02 -12 2 C-8.04 2 -4.08 2 0 2 C0 1.34 0 0.68 0 0 Z " fill="#926D1D" transform="translate(148,155)"/>
<path d="M0 0 C0.99 0.33 1.98 0.66 3 1 C3.70074844 4.153368 4 6.72724974 4 10 C3.34 10 2.68 10 2 10 C1.34 11.32 0.68 12.64 0 14 C-1.91729577 11.18044739 -1.99331618 9.92380446 -1.6875 6.4375 C-1 3 -1 3 0 0 Z " fill="#E0AA3F" transform="translate(54,60)"/>
<path d="M0 0 C1.93742341 -0.02703381 3.87495479 -0.04641125 5.8125 -0.0625 C6.89144531 -0.07410156 7.97039062 -0.08570313 9.08203125 -0.09765625 C12 0 12 0 15 1 C15 2.32 15 3.64 15 5 C12.69 5.33 10.38 5.66 8 6 C8 5.01 8 4.02 8 3 C5.36 3 2.72 3 0 3 C0 2.01 0 1.02 0 0 Z " fill="#CFA237" transform="translate(184,141)"/>
<path d="M0 0 C1.0828125 0.495 1.0828125 0.495 2.1875 1 C5.01697427 2.00603529 7.02895466 2.16977402 10 2 C10 3.32 10 4.64 10 6 C7 8 7 8 4.4375 7.75 C2 7 2 7 0 5 C-0.125 2.375 -0.125 2.375 0 0 Z " fill="#DBA93C" transform="translate(125,107)"/>
<path d="M0 0 C1.98362069 2.91708924 1.9876191 4.12380904 1.625 7.75 C1.41875 8.8225 1.2125 9.895 1 11 C-3.75 10.25 -3.75 10.25 -6 8 C-5.34 6.35 -4.68 4.7 -4 3 C-3.34 3 -2.68 3 -2 3 C-2 2.34 -2 1.68 -2 1 C-1.34 0.67 -0.68 0.34 0 0 Z " fill="#D3A134" transform="translate(72,75)"/>
<path d="M0 0 C2.51033417 1.1336993 2.96441202 2.36118938 3.9375 4.875 C3.6075 5.205 3.2775 5.535 2.9375 5.875 C3.9275 6.205 4.9175 6.535 5.9375 6.875 C5.6075 7.865 5.2775 8.855 4.9375 9.875 C-0.07363235 8.4432479 -2.00719549 5.89054307 -5.0625 1.875 C-2.0625 -0.125 -2.0625 -0.125 0 0 Z " fill="#E9BC4A" transform="translate(125.0625,68.125)"/>
<path d="M0 0 C1.75 1.3125 1.75 1.3125 3 3 C3 3.66 3 4.32 3 5 C3.66 5 4.32 5 5 5 C4.67 6.65 4.34 8.3 4 10 C3.01 10.33 2.02 10.66 1 11 C0.16121545 9.71186658 -0.67086783 8.41936744 -1.5 7.125 C-1.9640625 6.40570313 -2.428125 5.68640625 -2.90625 4.9453125 C-4 3 -4 3 -4 1 C-2.1875 0.3125 -2.1875 0.3125 0 0 Z " fill="#C79B33" transform="translate(157,116)"/>
<path d="M0 0 C0 0.66 0 1.32 0 2 C1.32 2.66 2.64 3.32 4 4 C0.97562661 5.5121867 -1.66241534 5.17263369 -5 5 C-7.375 4.1875 -7.375 4.1875 -9 3 C-9.33 2.01 -9.66 1.02 -10 0 C-6.30581799 -1.231394 -3.7943739 -0.64432764 0 0 Z " fill="#CEA234" transform="translate(105,80)"/>
<path d="M0 0 C10.6744186 0.88372093 10.6744186 0.88372093 14 3 C15.3125 6.125 15.3125 6.125 16 9 C13.525 8.01 13.525 8.01 11 7 C11 6.34 11 5.68 11 5 C7.37 4.34 3.74 3.68 0 3 C0 2.01 0 1.02 0 0 Z " fill="#B88F30" transform="translate(122,154)"/>
<path d="M0 0 C1.65 0.99 3.3 1.98 5 3 C3.84826645 5.46800047 2.95216435 7.04783565 1 9 C-2.625 8.625 -2.625 8.625 -6 8 C-6 7.34 -6 6.68 -6 6 C-2.53846154 3 -2.53846154 3 0 3 C0 2.01 0 1.02 0 0 Z " fill="#C1942D" transform="translate(211,126)"/>
<path d="M0 0 C1.65 0 3.3 0 5 0 C5.020625 0.763125 5.04125 1.52625 5.0625 2.3125 C5.79660949 5.41389118 5.79660949 5.41389118 9.5625 6.8125 C10.696875 7.204375 11.83125 7.59625 13 8 C13 8.66 13 9.32 13 10 C6.94462479 9.69723124 3.48516542 6.72245962 -1 3 C-0.67 2.01 -0.34 1.02 0 0 Z " fill="#B18626" transform="translate(71,137)"/>
<path d="M0 0 C0.33 0.99 0.66 1.98 1 3 C1.99 3 2.98 3 4 3 C5.125 9.75 5.125 9.75 4 12 C1.525 11.01 1.525 11.01 -1 10 C-1.125 2.25 -1.125 2.25 0 0 Z " fill="#C79830" transform="translate(53,104)"/>
<path d="M0 0 C3.63 0.66 7.26 1.32 11 2 C10.67 2.99 10.34 3.98 10 5 C9.34 5 8.68 5 8 5 C7.67 5.66 7.34 6.32 7 7 C7 6.34 7 5.68 7 5 C4.69 5.33 2.38 5.66 0 6 C0 4.02 0 2.04 0 0 Z " fill="#A47D1A" transform="translate(128,127)"/>
<path d="M0 0 C3.79600054 1.40592613 7.59011555 2.81435417 11.375 4.25 C11.045 4.91 10.715 5.57 10.375 6.25 C6.8530279 6.33004482 3.75518531 6.29005702 0.375 5.25 C0.375 4.59 0.375 3.93 0.375 3.25 C-0.285 3.25 -0.945 3.25 -1.625 3.25 C-1.625 2.59 -1.625 1.93 -1.625 1.25 C-2.615 0.92 -3.605 0.59 -4.625 0.25 C-2.625 -0.75 -2.625 -0.75 0 0 Z " fill="#C89E33" transform="translate(114.625,131.75)"/>
<path d="M0 0 C1.051875 0.70125 2.10375 1.4025 3.1875 2.125 C2 3.6875 2 3.6875 0.1875 5.125 C-3.2346787 5.03725183 -4.55769151 4.35226163 -7.125 2.0625 C-7.681875 1.423125 -8.23875 0.78375 -8.8125 0.125 C-5.19871807 -2.06517086 -3.53781136 -2.05653262 0 0 Z " fill="#DBB141" transform="translate(107.8125,114.875)"/>
<path d="M0 0 C1.32 0 2.64 0 4 0 C4.50615298 1.26839526 5.00469099 2.53983102 5.5 3.8125 C5.91765625 4.87404297 5.91765625 4.87404297 6.34375 5.95703125 C7 8 7 8 7 11 C6.34 11 5.68 11 5 11 C5 10.34 5 9.68 5 9 C4.01 8.67 3.02 8.34 2 8 C1.26953125 6.15234375 1.26953125 6.15234375 0.8125 3.9375 C0.65394531 3.20402344 0.49539062 2.47054687 0.33203125 1.71484375 C0.22246094 1.14894531 0.11289063 0.58304688 0 0 Z " fill="#BE9532" transform="translate(114,139)"/>
<path d="M0 0 C4.455 0.99 4.455 0.99 9 2 C9 2.33 9 2.66 9 3 C7.35 3 5.7 3 4 3 C3.67 4.32 3.34 5.64 3 7 C0.36 6.67 -2.28 6.34 -5 6 C-5 5.34 -5 4.68 -5 4 C-3.35 3.67 -1.7 3.34 0 3 C0 2.01 0 1.02 0 0 Z " fill="#D0A637" transform="translate(101,57)"/>
<path d="M0 0 C0.99 0.33 1.98 0.66 3 1 C3.6875 3.0625 3.6875 3.0625 4 5 C4.7425 4.95875 5.485 4.9175 6.25 4.875 C9.08758952 5.00398134 10.58773938 5.57051222 13 7 C13 7.66 13 8.32 13 9 C7.06 8.01 7.06 8.01 1 7 C0.34 5.02 -0.32 3.04 -1 1 C-0.67 0.67 -0.34 0.34 0 0 Z " fill="#B58E2B" transform="translate(135,139)"/>
<path d="M0 0 C1.65 1.32 3.3 2.64 5 4 C4.6875 5.9375 4.6875 5.9375 4 8 C3.01 8.33 2.02 8.66 1 9 C-0.32 7.68 -1.64 6.36 -3 5 C-2.67 4.01 -2.34 3.02 -2 2 C-1.34 2 -0.68 2 0 2 C0 1.34 0 0.68 0 0 Z " fill="#D7AD3D" transform="translate(175,121)"/>
<path d="M0 0 C1.65 0 3.3 0 5 0 C5.33 2.31 5.66 4.62 6 7 C4.02 7.99 4.02 7.99 2 9 C-0.29013653 5.5647952 -0.17842973 4.014669 0 0 Z " fill="#C7992F" transform="translate(190,117)"/>
<path d="M0 0 C3.4645173 1.21726284 5.43854318 2.43854318 8 5 C10.10332891 5.71447643 10.10332891 5.71447643 12 6 C11.01 6.495 11.01 6.495 10 7 C10.33 7.66 10.66 8.32 11 9 C10.01 9 9.02 9 8 9 C8 8.34 8 7.68 8 7 C6.8553125 6.814375 6.8553125 6.814375 5.6875 6.625 C3 6 3 6 0 4 C0 2.68 0 1.36 0 0 Z " fill="#BD8F27" transform="translate(76,138)"/>
<path d="M0 0 C2.79872437 2.52788007 4.45773019 4.20411134 5 8 C3.68 8.99 2.36 9.98 1 11 C0.34 10.34 -0.32 9.68 -1 9 C-0.625 5.875 -0.625 5.875 0 3 C-0.66 3 -1.32 3 -2 3 C-2 2.34 -2 1.68 -2 1 C-1.34 0.67 -0.68 0.34 0 0 Z " fill="#C89A30" transform="translate(149,80)"/>
<path d="M0 0 C0.33 0.66 0.66 1.32 1 2 C2.65 1.67 4.3 1.34 6 1 C8.125 5.625 8.125 5.625 7 9 C5.1875 8.8125 5.1875 8.8125 3 8 C0.85802506 5.09303401 0 3.64478912 0 0 Z " fill="#D0A436" transform="translate(144,100)"/>
<path d="M0 0 C2.875 -0.1875 2.875 -0.1875 6 0 C6.66 0.99 7.32 1.98 8 3 C7.01 3.66 6.02 4.32 5 5 C5 5.66 5 6.32 5 7 C3.68 7 2.36 7 1 7 C0.67 4.69 0.34 2.38 0 0 Z " fill="#DFAE41" transform="translate(91,76)"/>
<path d="M0 0 C0 1.32 0 2.64 0 4 C-1.32 4 -2.64 4 -4 4 C-4 4.99 -4 5.98 -4 7 C-3.360625 7.12375 -2.72125 7.2475 -2.0625 7.375 C-1.381875 7.58125 -0.70125 7.7875 0 8 C0.33 8.66 0.66 9.32 1 10 C-2.7726764 9.46104623 -4.68212991 8.00464642 -7 5 C-6.875 2.8125 -6.875 2.8125 -6 1 C-4 0 -4 0 0 0 Z " fill="#C79F35" transform="translate(157,146)"/>
<path d="M0 0 C1.98 0.66 3.96 1.32 6 2 C5.625 4.4375 5.625 4.4375 5 7 C3 8 3 8 0 9 C-1.10844919 5.67465243 -0.84454356 3.37817425 0 0 Z " fill="#CFA63A" transform="translate(108,147)"/>
<path d="M0 0 C0.55171875 0.17402344 1.1034375 0.34804687 1.671875 0.52734375 C4.36475653 1.07405292 6.52647404 0.88502281 9.25 0.5625 C10.14203125 0.46066406 11.0340625 0.35882813 11.953125 0.25390625 C12.96632812 0.12822266 12.96632812 0.12822266 14 0 C13.67 0.99 13.34 1.98 13 3 C8.38 3.33 3.76 3.66 -1 4 C-0.67 2.68 -0.34 1.36 0 0 Z " fill="#A58127" transform="translate(166,147)"/>
<path d="M0 0 C0.33 0 0.66 0 1 0 C1.33 2.97 1.66 5.94 2 9 C0.35 9.33 -1.3 9.66 -3 10 C-3.33 7.69 -3.66 5.38 -4 3 C-2.68 3 -1.36 3 0 3 C0 2.01 0 1.02 0 0 Z " fill="#E8BD47" transform="translate(73,83)"/>
<path d="M0 0 C1.31471568 0.28151087 2.62675767 0.57553339 3.9375 0.875 C4.66839844 1.03742188 5.39929687 1.19984375 6.15234375 1.3671875 C8 2 8 2 9 4 C8.34 4 7.68 4 7 4 C7 4.66 7 5.32 7 6 C5.02 5.34 3.04 4.68 1 4 C1 4.66 1 5.32 1 6 C0.01 5.67 -0.98 5.34 -2 5 C-1.34 3.35 -0.68 1.7 0 0 Z " fill="#E5BC47" transform="translate(56,70)"/>
<path d="M0 0 C-0.875 4.75 -0.875 4.75 -2 7 C-4.97 6.505 -4.97 6.505 -8 6 C-8 4 -8 4 -6.25 1.875 C-4 0 -4 0 0 0 Z " fill="#DBAD40" transform="translate(113,76)"/>
<path d="M0 0 C0.99 0 1.98 0 3 0 C3.66 2.97 4.32 5.94 5 9 C3.35 9 1.7 9 0 9 C0 6.03 0 3.06 0 0 Z " fill="#B99028" transform="translate(100,134)"/>
<path d="M0 0 C1.32 0.33 2.64 0.66 4 1 C4 1.99 4 2.98 4 4 C6.97 4 9.94 4 13 4 C10.33440687 5.77706209 7.9719385 6.87548273 5 8 C5 7.34 5 6.68 5 6 C3.68 6 2.36 6 1 6 C0.67 4.02 0.34 2.04 0 0 Z " fill="#CFA336" transform="translate(189,132)"/>
<path d="M0 0 C0.99 0.33 1.98 0.66 3 1 C2.67 1.99 2.34 2.98 2 4 C2.66 4.33 3.32 4.66 4 5 C4 5.66 4 6.32 4 7 C3.01 7.33 2.02 7.66 1 8 C1 7.01 1 6.02 1 5 C-1.64 5.33 -4.28 5.66 -7 6 C-6.67 5.01 -6.34 4.02 -6 3 C-4.02 2.67 -2.04 2.34 0 2 C0 1.34 0 0.68 0 0 Z " fill="#E0B447" transform="translate(146,127)"/>
<path d="M0 0 C0 0.99 0 1.98 0 3 C-6.75 3.125 -6.75 3.125 -9 2 C-9 1.01 -9 0.02 -9 -1 C-5.38055101 -2.34053666 -3.42632833 -1.61798838 0 0 Z " fill="#CA9B33" transform="translate(115,120)"/>
<path d="M0 0 C1.32 0.33 2.64 0.66 4 1 C3.25 3.9375 3.25 3.9375 2 7 C-0.125 7.875 -0.125 7.875 -2 8 C-2.33 7.34 -2.66 6.68 -3 6 C-2.06553465 3.96855359 -1.06775224 1.96466413 0 0 Z " fill="#E29D3D" transform="translate(74,114)"/>
<path d="M0 0 C0.66 0 1.32 0 2 0 C3.125 5.75 3.125 5.75 2 8 C0.02 8 -1.96 8 -4 8 C-2.87548273 5.0280615 -1.77706209 2.66559313 0 0 Z " fill="#E3B242" transform="translate(194,109)"/>
<path d="M0 0 C1.32 0 2.64 0 4 0 C4.6875 2.25 4.6875 2.25 5 5 C3.5625 7.3125 3.5625 7.3125 2 9 C-1.07692308 4.56923077 -1.07692308 4.56923077 -0.6875 1.6875 C-0.460625 1.130625 -0.23375 0.57375 0 0 Z " fill="#E7BB49" transform="translate(75,99)"/>
<path d="M0 0 C0.99 0 1.98 0 3 0 C3.99 2.31 4.98 4.62 6 7 C4.35 7.66 2.7 8.32 1 9 C-0.06546953 5.8035914 -0.07427838 3.34252724 0 0 Z " fill="#DCAB41" transform="translate(80,79)"/>
<path d="M0 0 C2.475 0.99 2.475 0.99 5 2 C5 1.34 5 0.68 5 0 C6.9375 0.375 6.9375 0.375 9 1 C9.33 1.66 9.66 2.32 10 3 C9.67 3.66 9.34 4.32 9 5 C7.02 5 5.04 5 3 5 C3 4.34 3 3.68 3 3 C1.68 3 0.36 3 -1 3 C-0.67 2.01 -0.34 1.02 0 0 Z " fill="#D1A436" transform="translate(52,74)"/>
<path d="M0 0 C0 2.97 0 5.94 0 9 C-1.32 8.67 -2.64 8.34 -4 8 C-4.75 6.25 -4.75 6.25 -5 4 C-1.66666667 0 -1.66666667 0 0 0 Z " fill="#CFA038" transform="translate(217,120)"/>
<path d="M0 0 C1.2065625 0.0309375 1.2065625 0.0309375 2.4375 0.0625 C2.1075 1.7125 1.7775 3.3625 1.4375 5.0625 C0.4475 5.3925 -0.5425 5.7225 -1.5625 6.0625 C-1.5625 6.7225 -1.5625 7.3825 -1.5625 8.0625 C-2.2225 8.0625 -2.8825 8.0625 -3.5625 8.0625 C-3.60491723 5.72955225 -3.60342937 3.39547433 -3.5625 1.0625 C-2.5625 0.0625 -2.5625 0.0625 0 0 Z " fill="#E8BE3C" transform="translate(71.5625,69.9375)"/>
<path d="M0 0 C0 1.32 0 2.64 0 4 C-0.66 4.66 -1.32 5.32 -2 6 C-2 6.99 -2 7.98 -2 9 C-2.99 8.67 -3.98 8.34 -5 8 C-4.125 4.125 -4.125 4.125 -3 3 C-3.99 2.67 -4.98 2.34 -6 2 C-6 1.34 -6 0.68 -6 0 C-3 -1 -3 -1 0 0 Z " fill="#B3892B" transform="translate(96,142)"/>
<path d="M0 0 C-1 1 -1 1 -2.85546875 1.1328125 C-7.34984745 1.11775595 -11.5761669 0.90745294 -16 0 C-16 -0.33 -16 -0.66 -16 -1 C-4.78301887 -3.18867925 -4.78301887 -3.18867925 0 0 Z " fill="#CEA132" transform="translate(176,139)"/>
<path d="M0 0 C1.65 0.99 3.3 1.98 5 3 C4.67 3.99 4.34 4.98 4 6 C2.125 6.8125 2.125 6.8125 0 7 C-0.99 6.34 -1.98 5.68 -3 5 C-3 3 -3 3 -1.5 1.375 C-1.005 0.92125 -0.51 0.4675 0 0 Z " fill="#BE9229" transform="translate(180,126)"/>
<path d="M0 0 C1.8125 0.1875 1.8125 0.1875 4 1 C5.75 3.5625 5.75 3.5625 7 6 C6.34 6 5.68 6 5 6 C4.67 6.99 4.34 7.98 4 9 C2 7.875 2 7.875 0 6 C-0.25 2.8125 -0.25 2.8125 0 0 Z " fill="#DFB545" transform="translate(131,118)"/>
<path d="M0 0 C0 1.65 0 3.3 0 5 C-1.32 5 -2.64 5 -4 5 C-4.33 4.67 -4.66 4.34 -5 4 C-6.65 4.66 -8.3 5.32 -10 6 C-10.66 4.68 -11.32 3.36 -12 2 C-9.03 2.495 -9.03 2.495 -6 3 C-6 2.34 -6 1.68 -6 1 C-1.125 0 -1.125 0 0 0 Z " fill="#E3B645" transform="translate(60,95)"/>
<path d="M0 0 C0.99 0.33 1.98 0.66 3 1 C3.6875 3.0625 3.6875 3.0625 4 5 C5.32 5 6.64 5 8 5 C8 5.66 8 6.32 8 7 C6.02 7.33 4.04 7.66 2 8 C0.4375 6.25 0.4375 6.25 -1 4 C-0.6875 1.75 -0.6875 1.75 0 0 Z " fill="#C19732" transform="translate(88,145)"/>
<path d="M0 0 C0.28875 0.639375 0.5775 1.27875 0.875 1.9375 C1.82823451 4.15206079 1.82823451 4.15206079 4 5 C1.1875 5.625 1.1875 5.625 -2 6 C-2.99 5.34 -3.98 4.68 -5 4 C-4.67 3.01 -4.34 2.02 -4 1 C-1.9375 0.3125 -1.9375 0.3125 0 0 Z " fill="#C0952E" transform="translate(126,115)"/>
<path d="M0 0 C2.00720923 0.28674418 4.0085944 0.61866701 6 1 C4.515 3.475 4.515 3.475 3 6 C1.35 5.67 -0.3 5.34 -2 5 C-1.125 1.125 -1.125 1.125 0 0 Z " fill="#CC9E30" transform="translate(202,115)"/>
<path d="M0 0 C4.95 1.98 4.95 1.98 10 4 C10 4.33 10 4.66 10 5 C6.7 5.66 3.4 6.32 0 7 C-1 3 -1 3 0 0 Z " fill="#ECC14E" transform="translate(103,96)"/>
<path d="M0 0 C0 1.98 0 3.96 0 6 C-1.65 6 -3.3 6 -5 6 C-3.68 5.67 -2.36 5.34 -1 5 C-1.33 4.34 -1.66 3.68 -2 3 C-4.11846285 2.31270746 -4.11846285 2.31270746 -6.5625 1.875 C-7.38878906 1.70742187 -8.21507813 1.53984375 -9.06640625 1.3671875 C-9.70449219 1.24601562 -10.34257813 1.12484375 -11 1 C-11 0.67 -11 0.34 -11 0 C-7.01803543 -1.05404945 -4.01804691 -0.84098656 0 0 Z " fill="#D7AC40" transform="translate(75,122)"/>
<path d="M0 0 C1.65 0 3.3 0 5 0 C6.125 4.75 6.125 4.75 5 7 C4.34 7 3.68 7 3 7 C3 6.34 3 5.68 3 5 C2.34 5 1.68 5 1 5 C0.67 3.35 0.34 1.7 0 0 Z " fill="#C39A32" transform="translate(55,100)"/>
<path d="M0 0 C1.5625 1.125 1.5625 1.125 3 3 C2.6875 6.1875 2.6875 6.1875 2 9 C-0.52588702 6.63707344 -1.88820837 5.33537489 -3 2 C-2.01 1.34 -1.02 0.68 0 0 Z " fill="#DDB240" transform="translate(100,92)"/>
<path d="M0 0 C0.99 0.33 1.98 0.66 3 1 C3 1.99 3 2.98 3 4 C2.34 4 1.68 4 1 4 C1 4.66 1 5.32 1 6 C1.66 6 2.32 6 3 6 C3.33 6.99 3.66 7.98 4 9 C2.125 8.8125 2.125 8.8125 0 8 C-1.375 5.625 -1.375 5.625 -2 3 C-1.34 2.01 -0.68 1.02 0 0 Z " fill="#E2B445" transform="translate(146,77)"/>
<path d="M0 0 C0 0.66 0 1.32 0 2 C1.32 2.66 2.64 3.32 4 4 C4 4.33 4 4.66 4 5 C-2.625 5.25 -2.625 5.25 -6 3 C-6 2.34 -6 1.68 -6 1 C-3 0 -3 0 0 0 Z " fill="#A28226" transform="translate(133,159)"/>
<path d="M0 0 C1.46282033 0.09033353 2.92182192 0.24703491 4.375 0.4375 C6.9721428 0.77166007 9.37411693 1 12 1 C12 1.66 12 2.32 12 3 C9.01503209 3.94396421 6.12820109 4.75232831 3 5 C0.4375 3.125 0.4375 3.125 -1 1 C-0.67 0.67 -0.34 0.34 0 0 Z " fill="#B48227" transform="translate(116,136)"/>
<path d="M0 0 C5.75 1.625 5.75 1.625 8 5 C6.02 5.66 4.04 6.32 2 7 C0.5393715 4.35261084 0 3.10551666 0 0 Z " fill="#DAAE42" transform="translate(67,132)"/>
<path d="M0 0 C0 0.99 0 1.98 0 3 C-2.76250036 4.38125018 -4.94731099 4.19079306 -8 4 C-8.66 3.34 -9.32 2.68 -10 2 C-6.38026598 0.68373308 -3.90432869 0 0 0 Z " fill="#ECBF4E" transform="translate(101,57)"/>
<path d="M0 0 C-1.70625501 2.78388975 -2.47626739 3.85384206 -5.6875 4.75 C-6.8321875 4.87375 -6.8321875 4.87375 -8 5 C-8 3.68 -8 2.36 -8 1 C-4.93251126 -0.86240388 -3.40254489 -1.2151946 0 0 Z " fill="#EBC04D" transform="translate(62,90)"/>
<path d="M0 0 C1.32 0.66 2.64 1.32 4 2 C3.6875 3.9375 3.6875 3.9375 3 6 C2.01 6.33 1.02 6.66 0 7 C-0.99 5.68 -1.98 4.36 -3 3 C-2.01 2.67 -1.02 2.34 0 2 C0 1.34 0 0.68 0 0 Z " fill="#E4B640" transform="translate(135,64)"/>
<path d="M0 0 C2.64 0.33 5.28 0.66 8 1 C7.67 1.66 7.34 2.32 7 3 C5.68 3 4.36 3 3 3 C2.67 3.99 2.34 4.98 2 6 C0.68 5.34 -0.64 4.68 -2 4 C-1.34 2.68 -0.68 1.36 0 0 Z " fill="#E0AC3D" transform="translate(88,60)"/>
<path d="M0 0 C0 0.66 0 1.32 0 2 C0.66 2.33 1.32 2.66 2 3 C-1.3 3 -4.6 3 -8 3 C-8 2.34 -8 1.68 -8 1 C-3.375 -1.125 -3.375 -1.125 0 0 Z " fill="#A7812C" transform="translate(165,158)"/>
<path d="M0 0 C-0.99 1.485 -0.99 1.485 -2 3 C-3.9453125 3.29296875 -3.9453125 3.29296875 -6.125 3.1875 C-7.40375 3.125625 -8.6825 3.06375 -10 3 C-10 2.34 -10 1.68 -10 1 C-8.71073008 0.63720544 -7.41846728 0.28503302 -6.125 -0.0625 C-5.40570313 -0.25972656 -4.68640625 -0.45695313 -3.9453125 -0.66015625 C-2 -1 -2 -1 0 0 Z " fill="#DEB741" transform="translate(199,147)"/>
<path d="M0 0 C2.64 0.33 5.28 0.66 8 1 C8.33 1.99 8.66 2.98 9 4 C5.71023192 5.09658936 4.28696233 4.79953138 1 4 C0.67 2.68 0.34 1.36 0 0 Z " fill="#D0A839" transform="translate(138,140)"/>
<path d="M0 0 C0.66 0 1.32 0 2 0 C2 0.99 2 1.98 2 3 C1.01 3.495 1.01 3.495 0 4 C0.66 4.33 1.32 4.66 2 5 C2 5.66 2 6.32 2 7 C2.66 7 3.32 7 4 7 C3.67 7.99 3.34 8.98 3 10 C2.01 9.34 1.02 8.68 0 8 C0 7.34 0 6.68 0 6 C-0.66 6 -1.32 6 -2 6 C-1.125 1.125 -1.125 1.125 0 0 Z " fill="#BD9425" transform="translate(153,129)"/>
<path d="M0 0 C0.33 0.66 0.66 1.32 1 2 C1.66 2 2.32 2 3 2 C3.66 3.98 4.32 5.96 5 8 C3.35 8 1.7 8 0 8 C0 5.36 0 2.72 0 0 Z " fill="#E6BC47" transform="translate(91,68)"/>
<path d="M0 0 C0 1.65 0 3.3 0 5 C-1.32 5 -2.64 5 -4 5 C-4 4.34 -4 3.68 -4 3 C-5.32 3 -6.64 3 -8 3 C-8 2.34 -8 1.68 -8 1 C-1.125 0 -1.125 0 0 0 Z " fill="#C59A37" transform="translate(185,150)"/>
<path d="M0 0 C2.49361571 1.20381448 4.68143083 2.45428722 7 4 C5.02 4.66 3.04 5.32 1 6 C0.01 5.01 -0.98 4.02 -2 3 C-1.34 2.01 -0.68 1.02 0 0 Z " fill="#DFB646" transform="translate(119,112)"/>
<path d="M0 0 C0.99 0.33 1.98 0.66 3 1 C3 1.99 3 2.98 3 4 C0.69 4.33 -1.62 4.66 -4 5 C-4.66 4.01 -5.32 3.02 -6 2 C-4.35 2 -2.7 2 -1 2 C-0.67 1.34 -0.34 0.68 0 0 Z " fill="#E3BA42" transform="translate(113,93)"/>
<path d="M0 0 C1.65 0 3.3 0 5 0 C4.67 1.32 4.34 2.64 4 4 C2.35 4.33 0.7 4.66 -1 5 C-0.67 3.35 -0.34 1.7 0 0 Z " fill="#D2A535" transform="translate(55,83)"/>
<path d="M0 0 C0.61875 0.28875 1.2375 0.5775 1.875 0.875 C2.205 1.865 2.535 2.855 2.875 3.875 C0.26917629 4.80565133 -0.76698224 5.02417407 -3.375 3.9375 C-3.9525 3.586875 -4.53 3.23625 -5.125 2.875 C-2.69803371 -0.15870787 -2.69803371 -0.15870787 0 0 Z " fill="#E1B442" transform="translate(125.125,68.125)"/>
<path d="M0 0 C0.515625 0.53625 1.03125 1.0725 1.5625 1.625 C-0.4175 2.615 -2.3975 3.605 -4.4375 4.625 C-6.0875 3.305 -7.7375 1.985 -9.4375 0.625 C-3.0375 -1.71346154 -3.0375 -1.71346154 0 0 Z " fill="#EEC556" transform="translate(123.4375,66.375)"/>
<path d="M0 0 C3.3 0.33 6.6 0.66 10 1 C10 1.66 10 2.32 10 3 C2.25 4.125 2.25 4.125 0 3 C0 2.01 0 1.02 0 0 Z " fill="#AA8125" transform="translate(193,133)"/>
<path d="M0 0 C1.0625 1.8125 1.0625 1.8125 2 4 C1.67 4.99 1.34 5.98 1 7 C-0.32 7 -1.64 7 -3 7 C-2.625 4.0625 -2.625 4.0625 -2 1 C-1.34 0.67 -0.68 0.34 0 0 Z " fill="#DDA93D" transform="translate(72,75)"/>
<path d="M0 0 C1.32 0.33 2.64 0.66 4 1 C4.33 3.97 4.66 6.94 5 10 C4.34 9.67 3.68 9.34 3 9 C3 8.01 3 7.02 3 6 C2.01 6 1.02 6 0 6 C0 4.02 0 2.04 0 0 Z M1 2 C2 4 2 4 2 4 Z " fill="#EBBE48" transform="translate(80,73)"/>
<path d="M0 0 C0.99 0.33 1.98 0.66 3 1 C3 4 3 4 2 6 C-0.0625 6.625 -0.0625 6.625 -2 7 C-2.6875 5.1875 -2.6875 5.1875 -3 3 C-1.5625 1.25 -1.5625 1.25 0 0 Z " fill="#EEC455" transform="translate(73,57)"/>
<path d="M0 0 C0 0.99 0 1.98 0 3 C-3.63 3 -7.26 3 -11 3 C-10.67 2.34 -10.34 1.68 -10 1 C-6.63471927 0.46582846 -3.40372484 0 0 0 Z " fill="#B48D30" transform="translate(156,161)"/>
<path d="M0 0 C1.37562854 1.28965176 2.70766393 2.62689293 4 4 C4 4.66 4 5.32 4 6 C2.35 6 0.7 6 -1 6 C-1.66 4.68 -2.32 3.36 -3 2 C-2.01 1.34 -1.02 0.68 0 0 Z " fill="#B78E2A" transform="translate(115,153)"/>
<path d="M0 0 C2.31 0 4.62 0 7 0 C7 1.32 7 2.64 7 4 C4.03 3.505 4.03 3.505 1 3 C0.67 2.01 0.34 1.02 0 0 Z " fill="#CFA941" transform="translate(162,143)"/>
<path d="M0 0 C1.98 0.99 1.98 0.99 4 2 C4 3.65 4 5.3 4 7 C2.68 7 1.36 7 0 7 C0 4.69 0 2.38 0 0 Z " fill="#CEA238" transform="translate(85,127)"/>
<path d="M0 0 C2 2 2 2 2 5 C0.35 5 -1.3 5 -3 5 C-3.33 3.68 -3.66 2.36 -4 1 C-2.125 0.375 -2.125 0.375 0 0 Z " fill="#DDB045" transform="translate(155,112)"/>
<path d="M0 0 C2.475 0.99 2.475 0.99 5 2 C5 2.99 5 3.98 5 5 C2.69 5.33 0.38 5.66 -2 6 C-2 5.34 -2 4.68 -2 4 C-1.34 4 -0.68 4 0 4 C0 2.68 0 1.36 0 0 Z " fill="#D7AE3F" transform="translate(96,142)"/>
<path d="M0 0 C1.98 0 3.96 0 6 0 C6 1.65 6 3.3 6 5 C5.01 5.33 4.02 5.66 3 6 C2.01 4.02 1.02 2.04 0 0 Z " fill="#D5A73B" transform="translate(80,138)"/>
<path d="M0 0 C3.3 0.33 6.6 0.66 10 1 C9.67 1.66 9.34 2.32 9 3 C6.03 2.67 3.06 2.34 0 2 C0 1.34 0 0.68 0 0 Z " fill="#C1942A" transform="translate(140,134)"/>
<path d="M0 0 C0.99 0 1.98 0 3 0 C3.66 1.65 4.32 3.3 5 5 C3.35 5.33 1.7 5.66 0 6 C-1 3 -1 3 0 0 Z " fill="#E8B544" transform="translate(160,102)"/>
<path d="M0 0 C0.66 0 1.32 0 2 0 C2 0.99 2 1.98 2 3 C4.31 3 6.62 3 9 3 C9 3.66 9 4.32 9 5 C5.37 4.67 1.74 4.34 -2 4 C-1.34 2.68 -0.68 1.36 0 0 Z " fill="#8A651C" transform="translate(162,149)"/>
<path d="M0 0 C0.99 0 1.98 0 3 0 C3 1.65 3 3.3 3 5 C2.01 5.33 1.02 5.66 0 6 C-0.66 5.67 -1.32 5.34 -2 5 C-1.125 1.125 -1.125 1.125 0 0 Z " fill="#CB9F3A" transform="translate(95,121)"/>
<path d="M0 0 C0.66 0 1.32 0 2 0 C2 0.66 2 1.32 2 2 C2.66 2 3.32 2 4 2 C4 1.34 4 0.68 4 0 C4.66 0 5.32 0 6 0 C5.67 1.98 5.34 3.96 5 6 C1.83884224 4.63016497 1.0072908 4.0109362 -1 1 C-0.67 0.67 -0.34 0.34 0 0 Z " fill="#E2B549" transform="translate(85,115)"/>
<path d="M0 0 C0.99 0 1.98 0 3 0 C3.33 1.32 3.66 2.64 4 4 C2.02 4.99 2.02 4.99 0 6 C-1.125 2.25 -1.125 2.25 0 0 Z " fill="#E9BD4A" transform="translate(127,103)"/>
<path d="M0 0 C1.37562854 1.28965176 2.70766393 2.62689293 4 4 C4 4.66 4 5.32 4 6 C2.68 6 1.36 6 0 6 C0 5.01 0 4.02 0 3 C-0.66 3 -1.32 3 -2 3 C-2 2.34 -2 1.68 -2 1 C-1.34 0.67 -0.68 0.34 0 0 Z " fill="#C5992F" transform="translate(156,93)"/>
<path d="M0 0 C2.97 0.33 5.94 0.66 9 1 C5.5647952 3.29013653 4.014669 3.17842973 0 3 C0 2.01 0 1.02 0 0 Z " fill="#C39B3B" transform="translate(122,154)"/>
<path d="M0 0 C1.65 0 3.3 0 5 0 C5 0.66 5 1.32 5 2 C4.01 2 3.02 2 2 2 C2 2.66 2 3.32 2 4 C0.35 4 -1.3 4 -3 4 C-3 3.34 -3 2.68 -3 2 C-2.01 2 -1.02 2 0 2 C0 1.34 0 0.68 0 0 Z " fill="#8E6B19" transform="translate(141,152)"/>
<path d="M0 0 C0.99 0.33 1.98 0.66 3 1 C3.75 2.9375 3.75 2.9375 4 5 C3.67 5.66 3.34 6.32 3 7 C2.34 7 1.68 7 1 7 C0.34 5.02 -0.32 3.04 -1 1 C-0.67 0.67 -0.34 0.34 0 0 Z " fill="#C38D2D" transform="translate(135,139)"/>
<path d="M0 0 C0 0.66 0 1.32 0 2 C-1.65 2 -3.3 2 -5 2 C-5.33 2.66 -5.66 3.32 -6 4 C-7.32 3.67 -8.64 3.34 -10 3 C-9.67 2.34 -9.34 1.68 -9 1 C-5.85554549 0.15014743 -3.29227921 0 0 0 Z " fill="#DDB349" transform="translate(132,138)"/>
<path d="M0 0 C0.33 0.99 0.66 1.98 1 3 C1.99 3 2.98 3 4 3 C4 3.66 4 4.32 4 5 C1.36 5 -1.28 5 -4 5 C-3.67 4.01 -3.34 3.02 -3 2 C-2.01 2 -1.02 2 0 2 C0 1.34 0 0.68 0 0 Z " fill="#A48022" transform="translate(63,122)"/>
<path d="M0 0 C1.98 0 3.96 0 6 0 C6 1.32 6 2.64 6 4 C4.35 3.67 2.7 3.34 1 3 C0.67 2.01 0.34 1.02 0 0 Z " fill="#D59D3B" transform="translate(126,120)"/>
<path d="M0 0 C1.98 0.66 3.96 1.32 6 2 C6 2.99 6 3.98 6 5 C4.35 4.67 2.7 4.34 1 4 C0.67 2.68 0.34 1.36 0 0 Z " fill="#E1AF43" transform="translate(52,114)"/>
<path d="M0 0 C2.97 1.98 2.97 1.98 6 4 C5.67 4.66 5.34 5.32 5 6 C3.68 6 2.36 6 1 6 C1 5.01 1 4.02 1 3 C0.34 3 -0.32 3 -1 3 C-0.67 2.01 -0.34 1.02 0 0 Z " fill="#C2972D" transform="translate(99,108)"/>
<path d="M0 0 C0.99 0.99 1.98 1.98 3 3 C2.67 3.99 2.34 4.98 2 6 C0.68 6 -0.64 6 -2 6 C-1.125 1.125 -1.125 1.125 0 0 Z " fill="#D0A637" transform="translate(80,103)"/>
<path d="M0 0 C-0.33 0.99 -0.66 1.98 -1 3 C-2.98 2.34 -4.96 1.68 -7 1 C-7 0.34 -7 -0.32 -7 -1 C-3.51418144 -2.2020064 -3.32007656 -2.21338437 0 0 Z " fill="#DFB342" transform="translate(121,90)"/>
<path d="M0 0 C2.31 0 4.62 0 7 0 C6.67 0.99 6.34 1.98 6 3 C3.9375 3.6875 3.9375 3.6875 2 4 C1.34 2.68 0.68 1.36 0 0 Z " fill="#F1C854" transform="translate(129,63)"/>
<path d="M0 0 C3.3 0.33 6.6 0.66 10 1 C6.1496895 3.56687367 4.41430237 2.83288724 0 2 C0 1.34 0 0.68 0 0 Z " fill="#A77D24" transform="translate(131,152)"/>
<path d="M0 0 C2.64 0 5.28 0 8 0 C7.67 0.99 7.34 1.98 7 3 C4.69 3 2.38 3 0 3 C0 2.01 0 1.02 0 0 Z " fill="#C4972F" transform="translate(184,141)"/>
<path d="M0 0 C2.475 0.99 2.475 0.99 5 2 C5 3.32 5 4.64 5 6 C2.525 5.01 2.525 5.01 0 4 C0 2.68 0 1.36 0 0 Z " fill="#CAA237" transform="translate(76,138)"/>
<path d="M0 0 C0.33 0.99 0.66 1.98 1 3 C-2.63 3.33 -6.26 3.66 -10 4 C-7.02096266 1.02096266 -4.19714671 0 0 0 Z " fill="#A67B21" transform="translate(88,134)"/>
<path d="M0 0 C1.32 0 2.64 0 4 0 C3.67 0.99 3.34 1.98 3 3 C2.34 3 1.68 3 1 3 C0.67 3.66 0.34 4.32 0 5 C0 4.34 0 3.68 0 3 C-1.65 3 -3.3 3 -5 3 C-4.360625 2.690625 -3.72125 2.38125 -3.0625 2.0625 C-1.06389179 1.1654837 -1.06389179 1.1654837 0 0 Z " fill="#C39625" transform="translate(135,129)"/>
<path d="M0 0 C0 1.66666667 0 3.33333333 0 5 C-0.99 5.33 -1.98 5.66 -3 6 C-3.99 4.35 -4.98 2.7 -6 1 C-4.02 0.67 -2.04 0.34 0 0 Z " fill="#B37A27" transform="translate(161,121)"/>
<path d="M0 0 C0 0.66 0 1.32 0 2 C-0.99 2 -1.98 2 -3 2 C-3 2.66 -3 3.32 -3 4 C-4.9375 3.625 -4.9375 3.625 -7 3 C-7.33 2.34 -7.66 1.68 -8 1 C-2.25 -1.125 -2.25 -1.125 0 0 Z " fill="#E5B94C" transform="translate(118,122)"/>
<path d="M0 0 C1.32 0 2.64 0 4 0 C3.67 1.65 3.34 3.3 3 5 C2.01 5 1.02 5 0 5 C0 3.35 0 1.7 0 0 Z " fill="#C1952D" transform="translate(136,112)"/>
<path d="M0 0 C1.65 0 3.3 0 5 0 C5 0.99 5 1.98 5 3 C3.35 3.33 1.7 3.66 0 4 C0 2.68 0 1.36 0 0 Z " fill="#D3A12F" transform="translate(161,107)"/>
<path d="M0 0 C0.33 0.66 0.66 1.32 1 2 C1.66 2 2.32 2 3 2 C3 2.66 3 3.32 3 4 C3.99 4 4.98 4 6 4 C6 4.66 6 5.32 6 6 C3.625 5.75 3.625 5.75 1 5 C-0.3125 2.9375 -0.3125 2.9375 -1 1 C-0.67 0.67 -0.34 0.34 0 0 Z " fill="#BF972D" transform="translate(90,102)"/>
<path d="M0 0 C0.66 0.33 1.32 0.66 2 1 C1.67 2.65 1.34 4.3 1 6 C-0.65 6 -2.3 6 -4 6 C-4 5.01 -4 4.02 -4 3 C-2.68 2.67 -1.36 2.34 0 2 C0 1.34 0 0.68 0 0 Z " fill="#D1A637" transform="translate(55,97)"/>
<path d="M0 0 C2.475 0.99 2.475 0.99 5 2 C4.67 2.99 4.34 3.98 4 5 C2.68 5 1.36 5 0 5 C0 3.35 0 1.7 0 0 Z " fill="#E7BF46" transform="translate(56,78)"/>
<path d="M0 0 C0.66 0 1.32 0 2 0 C2.33 1.98 2.66 3.96 3 6 C1.68 6 0.36 6 -1 6 C-0.67 4.02 -0.34 2.04 0 0 Z " fill="#EFC449" transform="translate(110,70)"/>
<path d="M0 0 C1.32 0 2.64 0 4 0 C4.99 1.98 5.98 3.96 7 6 C6.401875 5.690625 5.80375 5.38125 5.1875 5.0625 C2.91043228 3.89790296 2.91043228 3.89790296 0 3 C0 2.01 0 1.02 0 0 Z " fill="#92701E" transform="translate(153,150)"/>
<path d="M0 0 C0.99 0 1.98 0 3 0 C3 0.66 3 1.32 3 2 C4.32 2.33 5.64 2.66 7 3 C4.36 3.33 1.72 3.66 -1 4 C-0.67 2.68 -0.34 1.36 0 0 Z " fill="#9E791F" transform="translate(166,147)"/>
<path d="M0 0 C0.99 0 1.98 0 3 0 C3 0.66 3 1.32 3 2 C3.99 2.33 4.98 2.66 6 3 C4.02 3.99 2.04 4.98 0 6 C0 4.02 0 2.04 0 0 Z " fill="#C89B32" transform="translate(169,143)"/>
<path d="M0 0 C1.37562854 1.28965176 2.70766393 2.62689293 4 4 C4 4.66 4 5.32 4 6 C3.34 6 2.68 6 2 6 C1.67 6.66 1.34 7.32 1 8 C0.17361624 5.10765685 0 3.11257569 0 0 Z " fill="#BE922B" transform="translate(186,130)"/>
<path d="M0 0 C0 0.66 0 1.32 0 2 C-2.35438733 3.42944945 -3.48032433 4.08661261 -6.25 3.625 C-6.8275 3.41875 -7.405 3.2125 -8 3 C-7 1 -7 1 -5.125 0.375 C-3 0 -3 0 0 0 Z " fill="#D69D31" transform="translate(203,110)"/>
<path d="M0 0 C0.66 0 1.32 0 2 0 C2 0.66 2 1.32 2 2 C3.32 2.66 4.64 3.32 6 4 C4.02 4.33 2.04 4.66 0 5 C0 3.35 0 1.7 0 0 Z " fill="#C69A30" transform="translate(103,80)"/>
<path d="M0 0 C0 0.66 0 1.32 0 2 C0.66 2 1.32 2 2 2 C2 2.66 2 3.32 2 4 C-2.75 3.25 -2.75 3.25 -5 1 C-3 0 -3 0 0 0 Z " fill="#9A771F" transform="translate(99,154)"/>
<path d="M0 0 C1.98 0 3.96 0 6 0 C6 1.32 6 2.64 6 4 C1.125 2.25 1.125 2.25 0 0 Z " fill="#DAAD3D" transform="translate(130,143)"/>
<path d="M0 0 C0.33 0.99 0.66 1.98 1 3 C1.99 3 2.98 3 4 3 C4 3.66 4 4.32 4 5 C1.69 4.67 -0.62 4.34 -3 4 C-3 3.34 -3 2.68 -3 2 C-2.01 1.34 -1.02 0.68 0 0 Z " fill="#9A7119" transform="translate(208,130)"/>
<path d="M0 0 C0.33 0.99 0.66 1.98 1 3 C-1.3125 3.625 -1.3125 3.625 -4 4 C-4.99 3.34 -5.98 2.68 -7 2 C-4.69 1.34 -2.38 0.68 0 0 Z " fill="#B68B26" transform="translate(75,127)"/>
<path d="M0 0 C1.98 0.495 1.98 0.495 4 1 C3.34 2.32 2.68 3.64 2 5 C1.01 4.67 0.02 4.34 -1 4 C-0.67 2.68 -0.34 1.36 0 0 Z " fill="#C99E35" transform="translate(74,114)"/>
<path d="M0 0 C1.32 1.32 2.64 2.64 4 4 C3.01 4.66 2.02 5.32 1 6 C0.67 5.01 0.34 4.02 0 3 C-0.66 3 -1.32 3 -2 3 C-2 2.34 -2 1.68 -2 1 C-1.34 0.67 -0.68 0.34 0 0 Z " fill="#D1A234" transform="translate(149,80)"/>
<path d="M0 0 C-0.99 0.495 -0.99 0.495 -2 1 C-3.13350534 3.01669827 -3.13350534 3.01669827 -4 5 C-4.66 3.35 -5.32 1.7 -6 0 C-3 -1 -3 -1 0 0 Z " fill="#D59C33" transform="translate(58,69)"/>
<path d="M0 0 C0.99 0.99 1.98 1.98 3 3 C2.01 3.99 1.02 4.98 0 6 C-0.99 5.67 -1.98 5.34 -3 5 C-2.67 4.01 -2.34 3.02 -2 2 C-1.34 2 -0.68 2 0 2 C0 1.34 0 0.68 0 0 Z " fill="#F3C84E" transform="translate(124,54)"/>
<path d="M0 0 C2.475 0.495 2.475 0.495 5 1 C4.67 1.99 4.34 2.98 4 4 C4.33 4.99 4.66 5.98 5 7 C4.01 6.67 3.02 6.34 2 6 C2 4.68 2 3.36 2 2 C1.34 2 0.68 2 0 2 C0 1.34 0 0.68 0 0 Z " fill="#F5CB57" transform="translate(111,49)"/>
</svg>
