<?xml version="1.0" encoding="UTF-8"?>
<svg version="1.1" xmlns="http://www.w3.org/2000/svg" width="1080" height="1920">
<path d="M0 0 C3.84815239 1.28271746 5.2034243 3.60113351 7.5 6.75 C15.49573349 17.41097798 24.20574862 27.33547328 33.29296875 37.07421875 C35.43453294 39.38883863 37.51625747 41.72713584 39.5625 44.125 C43.28784653 48.446769 47.37189589 52.40166911 51.44921875 56.38671875 C53.82060394 58.81620832 55.88188385 61.35235482 58 64 C59.15616475 65.07634045 60.3440492 66.1197123 61.5625 67.125 C64.99606524 70.04988891 68.15941271 73.14984214 71.3125 76.375 C75.67895568 80.81313588 80.26699463 84.82134791 85.13671875 88.69921875 C87.66383266 90.72987372 90.13114863 92.81515699 92.58496094 94.93334961 C105.56252126 106.10188073 119.30228789 115.80665888 133.91259766 124.72363281 C135.67261232 125.79981488 137.42161003 126.89398411 139.16796875 127.9921875 C142.0666629 129.76656446 144.99758366 131.40703094 148 133 C148.62165039 133.33032227 149.24330078 133.66064453 149.88378906 134.00097656 C176.23454808 147.66941859 206.8997231 153.15200357 235.61938477 159.6262207 C245.9805771 161.97884539 256.23545361 164.52015102 266.41015625 167.58984375 C267.32633728 167.86450974 268.24251831 168.13917572 269.1864624 168.42216492 C289.64701705 174.76378087 309.23767528 185.05331052 319.75 204.5 C328.08877447 221.84083411 327.78530925 240.16828959 328 259 C329.03898438 258.45730469 330.07796875 257.91460937 331.1484375 257.35546875 C352.62971735 246.27825696 374.41773692 243.53211006 397.796875 250.87890625 C417.54884002 258.20921625 432.94592268 273.21191465 442 292 C450.90052947 312.50501725 451.21703617 333.61212708 443.8125 354.625 C436.93316871 371.52556611 423.39592252 386.80203874 407 395 C406.34 395 405.68 395 405 395 C405 395.66 405 396.32 405 397 C405.58265625 397.02578125 406.1653125 397.0515625 406.765625 397.078125 C427.63139458 398.52166881 445.33545409 410.55498051 459.3125 425.375 C477.52168044 447.03434095 480.48529972 472.13146659 480.36914349 499.45357037 C480.37136761 501.56316041 480.37490888 503.67274939 480.37963298 505.78233531 C480.38877628 511.55116343 480.37936832 517.31983112 480.36679858 523.0886472 C480.35644392 529.37512561 480.36361824 535.6615887 480.36853105 541.94807035 C480.37473807 552.95620413 480.369944 563.9642814 480.35761642 574.97240829 C480.34445602 586.77641506 480.33790168 598.58039844 480.33932304 610.38441277 C480.33940912 611.13152551 480.3394952 611.87863824 480.33958388 612.64839076 C480.34005304 616.45829869 480.34062889 620.26820658 480.34124239 624.07811448 C480.34545875 651.61497893 480.3351937 679.15182258 480.31719017 706.68868065 C480.29940928 733.95026948 480.2878622 761.2118494 480.28463173 788.47344398 C480.28452849 789.32078579 480.28442526 790.1681276 480.28431889 791.04114644 C480.28337927 798.78056359 480.2825162 806.51998076 480.28174497 814.25939793 C480.27982704 833.49679386 480.27694923 852.73418958 480.27341938 871.97158527 C480.27325943 872.84751303 480.27309948 873.72344079 480.27293468 874.62591181 C480.26507436 917.21146735 480.24615343 959.797017 480.22631836 1002.38256836 C480.21944324 1017.15655513 480.21261708 1031.93054192 480.20599365 1046.70452881 C480.2055828 1047.62084096 480.20517196 1048.5371531 480.20474866 1049.48123229 C480.18571054 1092.09163502 480.17457009 1134.70203875 480.16539519 1177.31244462 C480.16479349 1180.10113392 480.16418659 1182.88982322 480.16357798 1185.67851252 C480.15723757 1214.74156926 480.15127638 1243.80462607 480.14547966 1272.86768292 C480.14531402 1273.69802999 480.14514838 1274.52837706 480.14497772 1275.38388616 C480.14467656 1276.89473632 480.14437583 1278.40558648 480.14407576 1279.91643665 C480.11605116 1420.61096878 480.05555925 1561.30547098 480 1702 C163.86 1702 -152.28 1702 -478 1702 C-478.12120443 1393.3596529 -478.12120443 1393.3596529 -478.14449489 1275.48146176 C-478.14482302 1273.82667801 -478.14515128 1272.17189425 -478.14547966 1270.5171105 C-478.14564429 1269.68738611 -478.14580892 1268.85766172 -478.14597854 1268.00279417 C-478.15180314 1238.68886308 -478.15782379 1209.37493203 -478.16418777 1180.06100105 C-478.16479345 1177.26314253 -478.16539399 1174.465284 -478.16599327 1171.66742547 C-478.17518883 1128.82580778 -478.1868929 1085.98419265 -478.20599365 1043.14257812 C-478.20640435 1042.22130588 -478.20681505 1041.30003364 -478.20723819 1040.35084406 C-478.21387529 1025.49724038 -478.22072612 1010.6436368 -478.22760532 995.79003323 C-478.24741667 953.00623323 -478.26564717 910.22243519 -478.27341938 867.43863106 C-478.27357999 866.55878216 -478.27374059 865.67893326 -478.27390606 864.77242227 C-478.27740339 845.45741965 -478.28008793 826.142417 -478.28200295 806.82741416 C-478.28278781 799.05565937 -478.28368967 791.28390459 -478.28463173 783.51214981 C-478.28473201 782.66156612 -478.28483229 781.81098243 -478.28493561 780.93462348 C-478.28822468 753.53053673 -478.30103698 726.1264646 -478.31884663 698.72238375 C-478.33674402 671.11619579 -478.34529688 643.510022 -478.34087196 615.90382809 C-478.34026273 612.08831308 -478.33976058 608.27279806 -478.33932304 604.45728302 C-478.3392334 603.70933806 -478.33914376 602.9613931 -478.3390514 602.19078315 C-478.33790976 590.35087517 -478.34686013 578.51099719 -478.36002959 566.67109738 C-478.37277404 555.02658345 -478.37456307 543.38211696 -478.36549544 531.73759839 C-478.3609579 525.50929503 -478.36119438 519.2810919 -478.37464955 513.05279921 C-478.38680108 507.38494619 -478.38509827 501.71727148 -478.37241993 496.04942115 C-478.37028002 494.01339604 -478.37315357 491.97735778 -478.38170573 489.9413495 C-478.48987303 462.44300686 -470.96198119 439.46797775 -451.625 419.3125 C-439.85511215 407.90352864 -422.40722929 397.38438157 -405.59375 396.90234375 C-404.30984375 396.95068359 -404.30984375 396.95068359 -403 397 C-403 396.34 -403 395.68 -403 395 C-404.32451172 394.61134766 -404.32451172 394.61134766 -405.67578125 394.21484375 C-421.61080469 388.39135105 -433.28778461 372.58848919 -440.49609375 357.96484375 C-448.22058839 340.56753981 -450.1752167 319.88111972 -444.39453125 301.55859375 C-440.32772186 291.18082524 -435.54908546 281.3104739 -428 273 C-427.35804688 272.26652344 -426.71609375 271.53304688 -426.0546875 270.77734375 C-412.70874285 256.42183502 -393.77919435 247.7659454 -374.26171875 246.6796875 C-356.1337762 246.06801927 -341.76017759 250.26084365 -326 259 C-326.02356567 257.95211304 -326.02356567 257.95211304 -326.04760742 256.88305664 C-326.53632837 231.77269819 -325.54235413 209.18489346 -307.4375 189.9375 C-285.1940235 168.49199575 -250.22578313 163.34399704 -221.27197266 156.77319336 C-208.22991616 153.80208484 -195.29074269 150.64542022 -182.45703125 146.86328125 C-181.36924377 146.54388077 -180.2814563 146.22448029 -179.16070557 145.895401 C-147.86529315 136.46751019 -120.02158673 118.74511425 -95 98 C-94.44521973 97.54141602 -93.89043945 97.08283203 -93.31884766 96.61035156 C-86.0546778 90.58356535 -78.95058863 84.38648288 -72 78 C-71.47245117 77.51756836 -70.94490234 77.03513672 -70.40136719 76.53808594 C-62.60510047 69.39629878 -54.98900925 62.08856266 -47.5 54.625 C-46.75878906 53.88838135 -46.01757812 53.1517627 -45.25390625 52.39282227 C-41.19686469 48.32431755 -37.31406729 44.16107825 -33.56347656 39.80859375 C-31.46945094 37.38627304 -29.29761115 35.03933328 -27.125 32.6875 C-22.68418761 27.81262324 -18.46913897 22.79852484 -14.33789062 17.66015625 C-12.14747159 14.94211803 -9.94228133 12.23609928 -7.73950195 9.52807617 C-5.15766023 6.35368061 -2.57878164 3.17688159 0 0 Z " fill="#590025" transform="translate(539,109)"/>
</svg>
