<?xml version="1.0" encoding="UTF-8"?>
<svg version="1.1" xmlns="http://www.w3.org/2000/svg" width="347" height="350">
<path d="M0 0 C0.10957031 0.74765625 0.21914062 1.4953125 0.33203125 2.265625 C0.49058594 3.25046875 0.64914063 4.2353125 0.8125 5.25 C0.96332031 6.22453125 1.11414063 7.1990625 1.26953125 8.203125 C2.03668275 11.14045372 3.11758337 12.66889777 5 15 C5 15.66 5 16.32 5 17 C8.21094702 18.65528534 11.48344082 20.09829087 14.8125 21.5 C15.80894531 21.9228125 16.80539063 22.345625 17.83203125 22.78125 C25.83125644 25.8586338 32.52969393 26.30377747 41.09545898 26.31884766 C42.40345963 26.32889328 43.71146027 26.3389389 45.05909729 26.34928894 C48.62880455 26.37648524 52.19847258 26.39170739 55.76825595 26.40471697 C59.50522256 26.42039313 63.24210958 26.44716895 66.97901917 26.4727478 C74.04778307 26.51945643 81.11656209 26.55623873 88.18540102 26.58942068 C96.23624543 26.62769814 104.28700975 26.6770935 112.33778656 26.72740483 C128.89180011 26.83060688 145.44585817 26.91990525 162 27 C163.25577783 29.51155565 163.11472724 31.19463288 163.10006714 34.00567627 C163.09710632 35.06520508 163.09414551 36.12473389 163.09109497 37.21636963 C163.08278656 38.38407898 163.07447815 39.55178833 163.06591797 40.75488281 C163.06124512 41.9811438 163.05657227 43.20740479 163.05175781 44.4708252 C163.04122973 47.14345651 163.02894552 49.8160199 163.01403427 52.48862457 C162.99095662 56.72683877 162.97766005 60.96504822 162.96633911 65.20330811 C162.93292745 77.25767038 162.89164342 89.31196438 162.82861328 101.36621094 C162.79390319 108.02009225 162.77021309 114.67392111 162.75840485 121.32788348 C162.75167921 124.84396867 162.73940914 128.35983208 162.71337509 131.8758316 C162.68421685 135.81469561 162.67898222 139.753409 162.67529297 143.69238281 C162.65675766 145.40751068 162.65675766 145.40751068 162.6378479 147.1572876 C162.66785419 159.40436641 164.9434233 170.32603314 171 181 C171.32871094 181.72574219 171.65742188 182.45148438 171.99609375 183.19921875 C173.44023483 185.78968193 175.2530879 186.10725357 178 187 C178.66 187.33 179.32 187.66 180 188 C181.53668865 188.22467831 183.07968054 188.40796805 184.625 188.5625 C185.44226563 188.64628906 186.25953125 188.73007813 187.1015625 188.81640625 C187.72804688 188.87699219 188.35453125 188.93757812 189 189 C189.33 189.99 189.66 190.98 190 192 C187.49386343 196.81178221 185.09283956 199.12916098 180 201 C178.3339018 201.04352651 176.66589419 201.05073789 175 201 C174.66226562 201.68707031 174.32453125 202.37414062 173.9765625 203.08203125 C173.53054688 203.98308594 173.08453125 204.88414062 172.625 205.8125 C172.18414062 206.70582031 171.74328125 207.59914062 171.2890625 208.51953125 C170 211 170 211 168 214 C166.68 214 165.36 214 164 214 C164.00523682 213.21351074 164.01047363 212.42702148 164.01586914 211.61669922 C164.0367201 208.03614101 164.04968601 204.45559562 164.0625 200.875 C164.07087891 199.6375 164.07925781 198.4 164.08789062 197.125 C164.09111328 195.92617187 164.09433594 194.72734375 164.09765625 193.4921875 C164.10289307 192.39245605 164.10812988 191.29272461 164.11352539 190.15966797 C164.0008558 187.02381895 163.58626376 184.07940617 163 181 C162.92976803 188.28586365 162.87682429 195.57165157 162.84456348 202.85778809 C162.82906172 206.2428808 162.8081165 209.62773806 162.77368164 213.01269531 C161.39868519 238.19140328 161.39868519 238.19140328 170 261 C171.95633975 263.41121859 171.95633975 263.41121859 175.625 263.125 C177.295625 263.063125 177.295625 263.063125 179 263 C179.72256829 258.51866426 179.72256829 258.51866426 180 254 C177.69 253.34 175.38 252.68 173 252 C173.33 251.34 173.66 250.68 174 250 C180.26721763 249.51790634 180.26721763 249.51790634 183.375 251.5625 C185.53538251 254.80307376 185.93187446 257.11684403 186 261 C184.42435501 264.64886208 182.53250338 267.13562322 179 269 C172.98379204 269.7945935 169.82852163 268.31369131 165 265 C164.34 264.01 163.68 263.02 163 262 C162.9492473 268.60193597 162.91424424 275.20382153 162.89013672 281.8059082 C162.88008556 284.05137004 162.86644256 286.29681881 162.84912109 288.54223633 C162.82483419 291.77167997 162.81350793 295.00095038 162.8046875 298.23046875 C162.79436493 299.23272995 162.78404236 300.23499115 162.77340698 301.2676239 C162.77325592 302.20822159 162.77310486 303.14881927 162.77294922 304.11791992 C162.768508 304.94176682 162.76406677 305.76561371 162.75949097 306.61442566 C162.8976372 309.10595767 162.8976372 309.10595767 164.08059692 311.66059875 C164.38399994 312.43260117 164.68740295 313.20460358 165 314 C163.9375 316.3125 163.9375 316.3125 162 318 C159.4375 318.4375 159.4375 318.4375 157 318 C154.37227306 314.05840959 155.21763459 311.3398148 155.86279297 306.89306641 C157.02649916 297.78680783 157.26149276 288.8792258 157.1953125 279.7109375 C157.19156647 278.14482812 157.18872706 276.57871635 157.18673706 275.01260376 C157.17922537 270.95871106 157.1596898 266.90496959 157.1373291 262.85113525 C157.11659633 258.68723596 157.1076777 254.52331141 157.09765625 250.359375 C157.0764274 242.23951515 157.04244943 234.11977656 157 226 C154.35008212 236.91573104 152.36170774 247.3848702 151.75 258.625 C151.63398437 260.43484375 151.63398437 260.43484375 151.515625 262.28125 C151.33113435 265.18697776 151.15924546 268.09279939 151 271 C150.01 270.67 149.02 270.34 148 270 C146.83203125 267.3828125 146.83203125 267.3828125 145.8125 264.125 C145.46832031 263.05507813 145.12414062 261.98515625 144.76953125 260.8828125 C144 258 144 258 144 255 C143.24396484 255.23976562 143.24396484 255.23976562 142.47265625 255.484375 C139.10813758 256.18598079 135.87232177 256.20970884 132.4375 256.25 C131.42913086 256.2809375 131.42913086 256.2809375 130.40039062 256.3125 C125.45604445 256.35177981 125.45604445 256.35177981 123.03515625 254.484375 C122.69355469 253.99453125 122.35195313 253.5046875 122 253 C125.17584016 250.35346653 128.47161238 247.96482899 131.875 245.625 C146.22380286 235.57020926 152.86389793 224.98621441 156.03930664 207.56884766 C157.1037777 201.08587119 157.25699469 194.79170367 157.1953125 188.234375 C157.1924826 187.07496399 157.18965271 185.91555298 157.18673706 184.7210083 C157.17565527 181.06389484 157.15057369 177.40703785 157.125 173.75 C157.11495467 171.25130565 157.10583156 168.75260742 157.09765625 166.25390625 C157.07575542 160.1691852 157.04239979 154.08461093 157 148 C156.21681396 148.64525635 155.43362793 149.2905127 154.62670898 149.95532227 C151.12004802 152.68497052 148.38569505 153.23218386 144 153 C140.35374523 151.62405481 137.43909069 150.08095666 135 147 C133.49086276 142.47258828 133.22570719 137.93573202 135 133.5 C135.33 133.005 135.66 132.51 136 132 C135.29875 131.938125 134.5975 131.87625 133.875 131.8125 C130.12163147 130.75176542 127.54613603 128.89001073 125 126 C123.72047981 123.69399906 122.88304476 121.50196015 122 119 C125 119 125 119 126.83984375 120.6796875 C127.53207031 121.40414062 128.22429687 122.12859375 128.9375 122.875 C134.12830161 127.72317444 139.07060073 128.53100513 146 129 C144.92232022 131.26830417 144.00418556 132.99534938 142.3125 134.875 C140.68742545 137.03837312 140.68742545 137.03837312 141.25 140.1875 C141.71769263 142.88470472 141.71769263 142.88470472 143 144 C145.78444577 144.75383338 145.78444577 144.75383338 149 144 C153.94704377 139.3090385 156.73331951 133.57831015 157.24050903 126.77285767 C157.23606781 125.61369843 157.23162659 124.45453918 157.22705078 123.26025391 C157.22748886 122.29333618 157.22748886 122.29333618 157.22793579 121.30688477 C157.22655315 119.19663577 157.21104311 117.08674908 157.1953125 114.9765625 C157.19157856 113.50540357 157.18873339 112.03424215 157.18673706 110.56307983 C157.17913056 106.70628902 157.159508 102.84965079 157.1373291 98.99291992 C157.11680613 95.05129052 157.10772159 91.10963627 157.09765625 87.16796875 C157.07625903 79.44524323 157.04215949 71.72264306 157 64 C156.67 64.33 156.34 64.66 156 65 C154.33382885 65.04063832 152.66611905 65.042721 151 65 C150.95875 66.093125 150.9175 67.18625 150.875 68.3125 C150 72 150 72 147.625 74.0625 C142.40717597 75.41193725 138.16593459 74.17330867 133 73 C132.34 73 131.68 73 131 73 C131.66 73.99 132.32 74.98 133 76 C134.07272622 81.27423723 133.9864761 84.56902529 132.49609375 89.80078125 C130.9124933 96.82099425 131.40250979 103.12110041 134.83203125 109.44140625 C136.09027091 111.30082386 136.09027091 111.30082386 139 113 C141.54230847 113.41679297 141.54230847 113.41679297 144 113 C146.13586678 109.79619983 146.23132175 108.98060033 146.125 105.3125 C146.10695313 104.50425781 146.08890625 103.69601563 146.0703125 102.86328125 C146.04710937 102.24839844 146.02390625 101.63351563 146 101 C143.69 100.34 141.38 99.68 139 99 C139.33 98.01 139.66 97.02 140 96 C143.1875 95.6875 143.1875 95.6875 147 96 C150.10087751 98.56159446 152.67770896 100.78079595 153.2734375 104.8828125 C153.55648752 111.13168606 152.04182619 115.1988004 148 120 C144.8021417 121.59892915 141.47852787 121.36262646 138 121 C132.93053154 118.87789693 129.4505908 114.89540236 127.01953125 110.04296875 C125.34252471 105.92524847 124.66255403 102.49927961 125 98 C124.01 98.495 124.01 98.495 123 99 C118.90763525 99.54564863 117.46424744 99.35323174 114.125 96.8125 C112 94 112 94 111.4375 91.4375 C112.19163986 88.1695606 113.26605599 86.92114985 116 85 C118.625 85 118.625 85 121 86 C122.3125 88.0625 122.3125 88.0625 123 90 C122.01 90.99 121.02 91.98 120 93 C119.67 92.01 119.34 91.02 119 90 C118.01 90.495 118.01 90.495 117 91 C117.33 91.99 117.66 92.98 118 94 C122.30326216 93.69410661 122.30326216 93.69410661 125.67578125 91.265625 C127.2205376 88.62267903 127.40281936 87.04158389 127.375 84 C127.38273437 83.154375 127.39046875 82.30875 127.3984375 81.4375 C126.9291142 78.56634568 125.89489101 77.16558973 124 75 C119.03063731 75 116.49793419 75.98688977 112.8125 79.375 C109.1242391 83.33227034 107.59170418 87.1510234 105.9921875 92.25390625 C104.39380111 96.67778669 101.77922913 100.24345953 99 104 C98.4225 104.86625 97.845 105.7325 97.25 106.625 C90.80163897 113.43160331 82.04483624 118.54369369 73 121 C70.14453125 120.625 70.14453125 120.625 68 120 C70.04362836 107.53386698 76.45300436 96.76781176 86.53515625 89.0625 C91.26706263 85.90335675 95.92869566 83.56464076 101.25 81.5625 C106.99232488 79.30738672 110.75641871 76.2800045 114 71 C114.87377281 68.99280009 114.87377281 68.99280009 115 67 C113.04223891 64.22124233 111.51237916 62.30125863 108.05859375 61.61328125 C104.05314415 61.51447509 100.5050702 61.938194 97 64 C95.51603346 65.80092298 95.51603346 65.80092298 95 68 C95.29805007 70.19747131 95.29805007 70.19747131 96 72 C96.99 71.67 97.98 71.34 99 71 C98.34 70.67 97.68 70.34 97 70 C97.33 69.01 97.66 68.02 98 67 C102.875 67.875 102.875 67.875 104 69 C104.29178308 71.77193929 104.36366316 73.41409825 102.875 75.8125 C100.04051261 77.60767534 98.29069071 77.52651051 95 77 C92.0625 74.9375 92.0625 74.9375 90 72 C90.1875 68.1875 90.1875 68.1875 91 65 C89.948125 64.88785156 89.948125 64.88785156 88.875 64.7734375 C80.12378916 63.56063382 75.32465482 60.64901138 69.4375 54.1875 C67.48729267 49.86312722 67.52599501 46.49914313 69 42 C72.11681555 38.52697695 75.46555891 36.97801671 80 36 C84.48727498 35.84100207 87.26797241 36.49673103 91 39.0625 C93.71036262 43.0433451 93.40114376 45.26650367 93 50 C92.01 50 91.02 50 90 50 C89.525625 49.030625 89.05125 48.06125 88.5625 47.0625 C87.29806053 44.19522563 87.29806053 44.19522563 86 43 C80.40386001 43.15101369 80.40386001 43.15101369 76 46 C76 49.78493152 76.95702879 50.95600567 79.625 53.6875 C85.12104454 57.82585182 90.36970472 58.27715513 96.984375 57.38671875 C99.19309472 57.00886226 99.19309472 57.00886226 102 56 C107.69082895 55.49843541 112.34268137 55.2741451 117 59 C116.67 58.030625 116.34 57.06125 116 56.0625 C114.41722794 50.40810416 113.7945124 45.18773676 116.6875 39.9375 C119 38 119 38 121.75 37.6875 C122.4925 37.790625 123.235 37.89375 124 38 C124.33 36.02 124.66 34.04 125 32 C116.14136668 32.0149098 107.2833749 32.05665867 98.42504883 32.13209057 C94.31112466 32.16629127 90.19756911 32.19145967 86.08349609 32.19555664 C82.10849279 32.19985461 78.13432002 32.22843965 74.15957642 32.27343178 C72.64788665 32.28635927 71.13609724 32.29073135 69.62435913 32.28615379 C59.80150673 32.26335067 53.15679965 32.99946701 45.9375 40 C44.67543394 42.6924076 45.09824911 44.21960144 46 47 C47.14415336 48.35070145 47.14415336 48.35070145 50.1875 48.375 C55.13863591 47.88800303 56.50780366 46.40702082 60 43 C61.6027956 44.6027956 61.19668444 46.47376825 61.3125 48.6875 C61.89708373 55.00100433 64.29650949 58.29650949 68.75 62.75 C69.4925 63.4925 70.235 64.235 71 65 C71 65.66 71 66.32 71 67 C65.71445164 66.67966374 62.4725973 63.72982673 59 60 C57.0625 56.625 57.0625 56.625 56 54 C55.01 54.495 55.01 54.495 54 55 C49.90842645 55.51512617 45.76410454 55.94367269 42.04296875 53.953125 C39.12748177 51.54128662 37.1730021 49.60239647 36.76171875 45.79296875 C36.73722656 44.93316406 36.71273437 44.07335938 36.6875 43.1875 C36.63142578 41.90939453 36.63142578 41.90939453 36.57421875 40.60546875 C37.13001052 37.20443102 38.80831953 35.59568937 41 33 C33.19371938 32.89748078 25.38761614 32.82807118 17.58081055 32.78027344 C14.93204521 32.76260429 12.28417864 32.73315175 9.63549805 32.69824219 C-12.64302071 32.4122427 -32.39408266 32.32003192 -49.3828125 48.2734375 C-53.67394602 52.74390198 -56.96989918 57.70190741 -60.20703125 62.9609375 C-61.07633684 64.34791945 -62.02899801 65.68221159 -63 67 C-63.99 67 -64.98 67 -66 67 C-67.10132827 63.46187455 -67.10058705 60.19021207 -67.0625 56.5 C-67.05347656 55.3759375 -67.04445312 54.251875 -67.03515625 53.09375 C-67.02355469 52.0728125 -67.01195312 51.051875 -67 50 C-67 48.68 -67 47.36 -67 46 C-67.91523437 45.74605469 -68.83046875 45.49210937 -69.7734375 45.23046875 C-70.96195313 44.88628906 -72.15046875 44.54210938 -73.375 44.1875 C-74.55835938 43.85105469 -75.74171875 43.51460937 -76.9609375 43.16796875 C-80 42 -80 42 -82 39 C-80.44023871 37.44023871 -78.8914334 37.8365651 -76.72265625 37.7890625 C-75.37554565 37.74942383 -75.37554565 37.74942383 -74.0012207 37.70898438 C-73.03144287 37.68126953 -72.06166504 37.65355469 -71.0625 37.625 C-60.04415053 37.22829975 -48.53559819 36.51186606 -38 33 C-48.67419698 32.97687672 -59.34838806 32.95908499 -70.02260494 32.94818783 C-74.97853922 32.94295897 -79.93445642 32.93586126 -84.89038086 32.92456055 C-89.66898836 32.91373178 -94.44757938 32.90772319 -99.2261982 32.90512276 C-101.05353619 32.90326849 -102.88087324 32.89964784 -104.70820427 32.89426994 C-107.25853329 32.88705964 -109.80879337 32.88600905 -112.35913086 32.88647461 C-113.50387878 32.8810817 -113.50387878 32.8810817 -114.67175293 32.87557983 C-118.12542164 32.5686376 -118.12542164 32.5686376 -121 34 C-122.99958364 34.04080783 -125.00045254 34.04254356 -127 34 C-129.125 29.375 -129.125 29.375 -128 26 C-125.6739143 25.61936779 -123.33944736 25.28730055 -121 25 C-120.67 25.33 -120.34 25.66 -120 26 C-118.52645652 26.09304018 -117.04849409 26.11746265 -115.57202148 26.11352539 C-114.63112167 26.11344986 -113.69022186 26.11337433 -112.72080994 26.11329651 C-111.69790359 26.10813522 -110.67499725 26.10297394 -109.62109375 26.09765625 C-108.058395 26.09553383 -108.058395 26.09553383 -106.46412659 26.09336853 C-103.12188906 26.0877508 -99.77971743 26.0751953 -96.4375 26.0625 C-94.17773534 26.05748728 -91.91796963 26.05292398 -89.65820312 26.04882812 C-84.10544609 26.03777561 -78.55272775 26.02102024 -73 26 C-73.63119751 25.41992188 -73.63119751 25.41992188 -74.27514648 24.828125 C-74.82243408 24.30734375 -75.36972168 23.7865625 -75.93359375 23.25 C-76.47814209 22.73953125 -77.02269043 22.2290625 -77.58374023 21.703125 C-80.01335819 18.78138481 -80.32476617 15.70528681 -80 12 C-78.85478876 8.7451891 -77.97024475 6.76233516 -75.25 4.625 C-70.71427473 3.36507631 -67.30000072 3.29347787 -63.125 5.5625 C-60.4228959 8.66197236 -60.23316485 10.95847594 -60 15 C-60.99 15.33 -61.98 15.66 -63 16 C-63.28875 15.21625 -63.5775 14.4325 -63.875 13.625 C-64.84912254 10.90328368 -64.84912254 10.90328368 -67 9 C-70.09926819 9.32198966 -70.09926819 9.32198966 -73 10 C-73.85370297 13.3372025 -74.20952623 15.39935814 -73.0625 18.6875 C-67.81362119 24.57260654 -58.42913457 25.08713107 -51 26 C-46.44931195 26.24184084 -41.91542126 26.23500471 -37.359375 26.1953125 C-36.11117981 26.1924826 -34.86298462 26.18965271 -33.57696533 26.18673706 C-29.63454132 26.17564322 -25.69235404 26.15055899 -21.75 26.125 C-19.05859953 26.11381319 -16.36719273 26.10569517 -13.67578125 26.09765625 C-7.11710827 26.07573934 -0.55857106 26.04237101 6 26 C1.9247366 25.23223525 -1.91005447 24.88097966 -6.0546875 24.90234375 C-7.16328125 24.90556641 -8.271875 24.90878906 -9.4140625 24.91210938 C-11.12722656 24.92467773 -11.12722656 24.92467773 -12.875 24.9375 C-14.62296875 24.94426758 -14.62296875 24.94426758 -16.40625 24.95117188 C-19.27088645 24.96291219 -22.13541633 24.9793343 -25 25 C-24.21337891 21.18115234 -24.21337891 21.18115234 -22.29296875 19.55078125 C-21.59816406 19.14214844 -20.90335937 18.73351562 -20.1875 18.3125 C-19.50042969 17.89613281 -18.81335938 17.47976562 -18.10546875 17.05078125 C-16.06629047 16.03308374 -14.22560412 15.45512354 -12 15 C-11.92523438 14.33613281 -11.85046875 13.67226562 -11.7734375 12.98828125 C-10.56485894 4.8718468 -10.56485894 4.8718468 -7.125 1.875 C-4 -0 -4 -0 0 0 Z M130 34 C129.11341534 36.59122743 129.11341534 36.59122743 129 39 C130.32 39.33 131.64 39.66 133 40 C133.66 39.01 134.32 38.02 135 37 C135.66 37 136.32 37 137 37 C136.9375 39.75 136.9375 39.75 136 43 C133.79371609 44.69130364 131.50562919 45.74718541 129 47 C128.67 47.66 128.34 48.32 128 49 C122.375 49.25 122.375 49.25 119 47 C120.0681847 52.11365014 121.23107476 57.07227969 123 62 C125.36467706 60.02943578 127.6907499 58.03423544 130 56 C130.67160156 55.41992188 131.34320313 54.83984375 132.03515625 54.2421875 C137.00817225 49.66203018 139.83090206 44.99712273 142.578125 38.83203125 C144.07041446 35.85975141 145.84319911 33.52087625 148 31 C145.93816367 30.91849256 143.87538651 30.8605806 141.8125 30.8125 C140.66394531 30.77769531 139.51539063 30.74289063 138.33203125 30.70703125 C134.68730977 31.02749328 132.86736981 31.76513824 130 34 Z M154.625 44.1875 C151.85452861 46.58108148 149.22326294 47.76455588 145.8125 49.0625 C138.41723163 52.20295643 134.04028033 57.9818875 129 64 C128.34 64.66 127.68 65.32 127 66 C128.74468372 66.70088156 130.49601161 67.38524009 132.25 68.0625 C133.71179688 68.63677734 133.71179688 68.63677734 135.203125 69.22265625 C138.04007395 70.01113787 139.29409552 70.02437812 142 69 C141.34 68.34 140.68 67.68 140 67 C140.375 63.875 140.375 63.875 141 61 C141.99 60.67 142.98 60.34 144 60 C145.15835673 57.02496878 145.15835673 57.02496878 146 54 C147 53 147 53 150.0625 52.9375 C151.5165625 52.9684375 151.5165625 52.9684375 153 53 C153.33 53.66 153.66 54.32 154 55 C152.68 55.33 151.36 55.66 150 56 C150 57.32 150 58.64 150 60 C152.53370516 59.65760741 154.50469943 59.32708528 156.65625 57.90625 C158.73245588 54.96093469 158.28495857 52.35349475 158.1875 48.8125 C158.16042969 47.54019531 158.13335937 46.26789062 158.10546875 44.95703125 C158.05326172 43.49330078 158.05326172 43.49330078 158 42 C156.58444121 41.88708737 156.58444121 41.88708737 154.625 44.1875 Z " fill="#FFCD86" transform="translate(146,0)"/>
<path d="M0 0 C3 0.25 3 0.25 5 2.25 C7.32135728 2.56167507 7.32135728 2.56167507 10.05519104 2.52174377 C11.66004364 2.53632126 11.66004364 2.53632126 13.2973175 2.55119324 C14.4760997 2.55178238 15.6548819 2.55237152 16.86938477 2.55297852 C18.10677399 2.56141785 19.34416321 2.56985718 20.61904907 2.57855225 C23.31304162 2.59552627 26.00676787 2.6088763 28.70077705 2.61609077 C32.95651465 2.62755435 37.21209764 2.65299958 41.46775818 2.68040466 C48.19550894 2.72208004 54.92326704 2.75448436 61.65108579 2.78287882 C73.70747063 2.83384235 85.76379153 2.89588418 97.82006687 2.96821922 C102.0547484 2.99319838 106.28940937 3.01260413 110.52413762 3.02760136 C113.7694474 3.04016091 117.01472377 3.0588532 120.26000977 3.07641602 C122.03121941 3.08033607 122.03121941 3.08033607 123.83821106 3.08433533 C124.90529297 3.09123383 125.97237488 3.09813232 127.0717926 3.10523987 C128.00481484 3.10909478 128.93783709 3.1129497 129.89913273 3.11692142 C132 3.25 132 3.25 133 4.25 C133.11608917 5.9001907 133.1629445 7.55529136 133.182724 9.20944214 C133.19803665 10.28349304 133.2133493 11.35754395 133.22912598 12.46414185 C133.24109009 13.65272797 133.2530542 14.84131409 133.26538086 16.06591797 C133.28182144 17.30970215 133.29826202 18.55348633 133.31520081 19.83496094 C133.35055549 22.54634163 133.3841537 25.25768247 133.41499138 27.9691124 C133.46407063 32.25473562 133.52160418 36.54021888 133.58070374 40.82571411 C133.74748069 53.0140507 133.90273408 65.20252064 134.04956055 77.39111328 C134.13067202 84.11824376 134.21878569 90.84524666 134.31442744 97.57218659 C134.37459181 101.83385935 134.42593647 106.09551995 134.47081935 110.35737967 C134.50779644 113.63012771 134.55749052 116.90268682 134.60522461 120.17529297 C134.62013443 121.95209946 134.62013443 121.95209946 134.63534546 123.76480103 C134.65347794 124.84449158 134.67161041 125.92418213 134.69029236 127.03659058 C134.70770178 128.4463683 134.70770178 128.4463683 134.72546291 129.88462639 C134.84913444 132.5166978 134.84913444 132.5166978 137 135.25 C136.45945946 139.79054054 136.45945946 139.79054054 135 141.25 C132.0625 141.4375 132.0625 141.4375 129 141.25 C127 139.25 127 139.25 126.8125 136.1875 C127 133.25 127 133.25 128 132.25 C128.10819148 130.63084076 128.1468479 129.00699212 128.15821838 127.38426208 C128.1680072 126.33111816 128.17779602 125.27797424 128.18788147 124.19291687 C128.19363693 123.02766983 128.1993924 121.86242279 128.20532227 120.66186523 C128.21522186 119.44252289 128.22512146 118.22318054 128.23532104 116.96688843 C128.26157179 113.61375394 128.2834077 110.26064407 128.30332303 106.90746951 C128.32514477 103.40671611 128.35255205 99.90600667 128.37937927 96.4052887 C128.42935787 89.77193534 128.47427745 83.13855765 128.51740164 76.50515658 C128.56672995 68.95506671 128.62166437 61.40502093 128.67708123 53.85497367 C128.79098056 38.32002317 128.89780219 22.78503216 129 7.25 C112.8496323 7.35710388 96.69931537 7.46984061 80.54903507 7.58933926 C73.05069115 7.64468849 65.55234247 7.69817321 58.05395508 7.74731445 C51.52066512 7.79013553 44.98741045 7.83640818 38.45417494 7.88687855 C34.99280267 7.9134963 31.53143748 7.93834969 28.07002449 7.95907402 C24.21208148 7.98223699 20.35422171 8.01310378 16.49633789 8.04467773 C15.34044159 8.0504332 14.18454529 8.05618866 12.99362183 8.06211853 C11.94889206 8.07190735 10.90416229 8.08169617 9.82777405 8.09178162 C8.45752878 8.10146044 8.45752878 8.10146044 7.05960178 8.1113348 C5.00810602 8.0225572 5.00810602 8.0225572 4 9.25 C0.5625 9.4375 0.5625 9.4375 -3 9.25 C-5 7.25 -5 7.25 -5.25 4.75 C-4.86630891 0.91308908 -3.76694968 0.31391247 0 0 Z " fill="#FFCD86" transform="translate(188,10.75)"/>
<path d="M0 0 C3 0.875 3 0.875 4.9375 2.5625 C6.39615475 5.73721916 6.00471852 7.57378201 5 10.875 C2 12.875 2 12.875 -1.5625 12.6875 C-5 11.875 -5 11.875 -7 8.875 C-6.8125 5.3125 -6.8125 5.3125 -6 1.875 C-3 -0.125 -3 -0.125 0 0 Z " fill="#FFCD86" transform="translate(253,38.125)"/>
<path d="M0 0 C3.625 0.25 3.625 0.25 5.5625 1.3125 C7.23421702 4.36092516 6.99533222 6.85528797 6.625 10.25 C2.91000878 12.72666082 1.01592112 12.79886514 -3.375 12.25 C-5.4375 10.125 -5.4375 10.125 -6.375 7.25 C-4.78369565 0.35434783 -4.78369565 0.35434783 0 0 Z " fill="#FFCD86" transform="translate(290.375,76.75)"/>
<path d="M0 0 C3.0625 0.3125 3.0625 0.3125 4.9375 1.5 C6.46909584 3.96757108 6.49072025 5.45769831 6.0625 8.3125 C4.9375 10.125 4.9375 10.125 3.0625 11.3125 C0.0625 11.75 0.0625 11.75 -2.9375 11.3125 C-4.875 9.625 -4.875 9.625 -5.9375 7.3125 C-5.61764525 2.8345335 -4.76027546 0.50641228 0 0 Z " fill="#FFCD86" transform="translate(69.9375,45.6875)"/>
<path d="M0 0 C2.4375 0.75 2.4375 0.75 4.4375 2.75 C4.6875 6.25 4.6875 6.25 4.4375 9.75 C2.4375 11.75 2.4375 11.75 -0.5 12.125 C-3.5625 11.75 -3.5625 11.75 -5.5 10.125 C-6.93754343 6.91166762 -6.57623739 5.08085144 -5.5625 1.75 C-2.5625 -0.25 -2.5625 -0.25 0 0 Z " fill="#FFCD86" transform="translate(284.5625,259.25)"/>
<path d="M0 0 C1.875 1.6875 1.875 1.6875 3 4 C2.875 6.625 2.875 6.625 2 9 C-1 11 -1 11 -3.5625 10.75 C-6 10 -6 10 -8 8 C-7.75 4.4375 -7.75 4.4375 -7 1 C-4.4254716 -0.2872642 -2.85291355 -0.34791629 0 0 Z " fill="#FFCD86" transform="translate(328,203)"/>
<path d="M0 0 C3 0.25 3 0.25 5 2.25 C5.25 5.25 5.25 5.25 5 8.25 C3 10.25 3 10.25 0 10.5 C-3 10.25 -3 10.25 -5 8.25 C-5.25 5.25 -5.25 5.25 -5 2.25 C-3 0.25 -3 0.25 0 0 Z " fill="#FFCD86" transform="translate(127,4.75)"/>
<path d="M0 0 C2.375 0.25 2.375 0.25 5 1 C6.3125 3.0625 6.3125 3.0625 7 5 C6.01 6.32 5.02 7.64 4 9 C2.35 8.67 0.7 8.34 -1 8 C-1.625 5.6875 -1.625 5.6875 -2 3 C-1.34 2.01 -0.68 1.02 0 0 Z " fill="#FFCD86" transform="translate(284,102)"/>
<path d="M0 0 C0.625 2.375 0.625 2.375 1 5 C-1 7 -1 7 -3.5625 7.1875 C-6 7 -6 7 -7 6 C-7.04080783 4.00041636 -7.04254356 1.99954746 -7 0 C-4.3333581 -1.33332095 -2.83319697 -0.67102033 0 0 Z " fill="#FFCD86" transform="translate(232,46)"/>
</svg>
